<svg width="520" height="473" viewBox="0 0 520 473" fill="none" xmlns="http://www.w3.org/2000/svg">
<rect width="520" height="473" rx="42" fill="#E94E1B"/>
<path fill-rule="evenodd" clip-rule="evenodd" d="M283.625 213.937C291.979 213.937 299.991 210.961 305.899 205.663C311.806 200.365 315.125 193.18 315.125 185.687C315.125 178.195 311.806 171.01 305.899 165.712C299.991 160.414 291.979 157.437 283.625 157.437C275.271 157.437 267.259 160.414 261.351 165.712C255.444 171.01 252.125 178.195 252.125 185.687C252.125 193.18 255.444 200.365 261.351 205.663C267.259 210.961 275.271 213.937 283.625 213.937ZM323 185.687C323 195.053 318.852 204.035 311.467 210.657C304.083 217.28 294.068 221 283.625 221C273.182 221 263.167 217.28 255.783 210.657C248.398 204.035 244.25 195.053 244.25 185.687C244.25 176.322 248.398 167.34 255.783 160.718C263.167 154.095 273.182 150.375 283.625 150.375C294.068 150.375 304.083 154.095 311.467 160.718C318.852 167.34 323 176.322 323 185.687Z" fill="white"/>
<path d="M271.324 192.355C271.694 196.564 275.404 199.841 282.058 200.237V203.344H285.011V200.216C291.902 199.785 295.926 196.479 295.926 191.691C295.926 187.326 292.855 185.081 287.342 183.922L285.011 183.428V174.953C287.972 175.257 289.846 176.704 290.295 178.71H295.477C295.107 174.649 291.224 171.478 285.011 171.132V168.032H282.058V171.21C276.175 171.725 272.175 174.896 272.175 179.388C272.175 183.357 275.152 185.886 280.105 186.917L282.058 187.348V196.331C279.034 195.922 277.026 194.424 276.577 192.355H271.324ZM282.034 182.792C279.128 182.192 277.553 180.956 277.553 179.106C277.553 177.029 279.254 175.476 282.058 175.024V182.792H282.034ZM285.436 188.061C288.972 188.795 290.594 189.982 290.594 192.08C290.594 194.474 288.571 196.112 285.011 196.416V187.976L285.436 188.061Z" fill="white"/>
<path d="M204.875 108C202.786 108 200.783 108.744 199.307 110.069C197.83 111.393 197 113.189 197 115.062V171.562C197 173.436 197.83 175.232 199.307 176.556C200.783 177.881 202.786 178.625 204.875 178.625H237.029C237.491 176.191 238.168 173.837 239.06 171.562H220.625C220.625 167.816 218.966 164.224 216.012 161.575C213.058 158.926 209.052 157.437 204.875 157.437V129.187C209.052 129.187 213.058 127.699 216.012 125.05C218.966 122.401 220.625 118.809 220.625 115.062H299.375C299.375 118.809 301.034 122.401 303.988 125.05C306.942 127.699 310.948 129.187 315.125 129.187V154.104C318.117 156.505 320.771 159.245 323 162.254V115.062C323 113.189 322.17 111.393 320.693 110.069C319.217 108.744 317.214 108 315.125 108H204.875Z" fill="white"/>
<path d="M275.734 143.9L275.75 143.313C275.748 140.881 275.046 138.49 273.712 136.373C272.378 134.255 270.456 132.482 268.134 131.226C265.811 129.97 263.166 129.273 260.455 129.203C257.744 129.132 255.059 129.691 252.659 130.825C250.259 131.959 248.227 133.629 246.758 135.674C245.29 137.719 244.435 140.069 244.277 142.498C244.119 144.926 244.662 147.35 245.855 149.534C247.048 151.719 248.85 153.59 251.085 154.966C257.893 149.162 266.474 145.309 275.734 143.9Z" fill="white"/>
<path d="M56.3672 311V308.539L58.4766 308.246L68.418 282.562H71.7188L81.4844 308.246L83.5742 308.539V311H75.4102V308.539L77.5586 308.168L75.6836 302.934H64.2969L62.3633 308.168L64.5117 308.539V311H56.3672ZM65.4883 299.711H74.5117L70.332 288.148L70.0977 287.504H69.9805L69.7461 288.148L65.4883 299.711ZM95.3711 311.41C93.457 311.41 91.7904 310.967 90.3711 310.082C88.9518 309.184 87.8516 307.94 87.0703 306.352C86.2891 304.763 85.8984 302.927 85.8984 300.844V300.023C85.8984 298.018 86.276 296.221 87.0312 294.633C87.7865 293.044 88.8737 291.788 90.293 290.863C91.7122 289.939 93.4049 289.477 95.3711 289.477C97.0768 289.477 98.5677 289.757 99.8438 290.316C101.133 290.876 102.214 291.645 103.086 292.621L103.184 297.699H100.176L99.5117 294.008C99.069 293.552 98.5156 293.188 97.8516 292.914C97.1875 292.641 96.4062 292.504 95.5078 292.504C94.362 292.504 93.3529 292.842 92.4805 293.52C91.6211 294.197 90.9505 295.102 90.4688 296.234C89.987 297.367 89.7461 298.63 89.7461 300.023V300.844C89.7461 302.38 89.9674 303.715 90.4102 304.848C90.8659 305.98 91.5104 306.859 92.3438 307.484C93.1901 308.096 94.1927 308.402 95.3516 308.402C96.6536 308.402 97.7344 308.044 98.5938 307.328C99.4531 306.612 99.9805 305.629 100.176 304.379H103.633L103.672 304.496C103.607 305.707 103.249 306.84 102.598 307.895C101.947 308.949 101.016 309.802 99.8047 310.453C98.6068 311.091 97.1289 311.41 95.3711 311.41ZM116.816 311.41C114.863 311.41 113.164 310.967 111.719 310.082C110.273 309.184 109.154 307.94 108.359 306.352C107.578 304.763 107.188 302.927 107.188 300.844V299.984C107.188 297.979 107.598 296.189 108.418 294.613C109.251 293.025 110.352 291.775 111.719 290.863C113.099 289.939 114.603 289.477 116.23 289.477C118.132 289.477 119.72 289.867 120.996 290.648C122.285 291.43 123.255 292.53 123.906 293.949C124.557 295.355 124.883 297.016 124.883 298.93V301.332H111.172L111.113 301.43C111.139 302.784 111.374 303.988 111.816 305.043C112.272 306.085 112.923 306.905 113.77 307.504C114.616 308.103 115.632 308.402 116.816 308.402C118.118 308.402 119.258 308.22 120.234 307.855C121.224 307.478 122.077 306.964 122.793 306.312L124.297 308.812C123.542 309.542 122.539 310.16 121.289 310.668C120.052 311.163 118.561 311.41 116.816 311.41ZM111.289 298.324H121.035V297.816C121.035 296.801 120.853 295.896 120.488 295.102C120.137 294.294 119.603 293.663 118.887 293.207C118.184 292.738 117.298 292.504 116.23 292.504C115.371 292.504 114.59 292.758 113.887 293.266C113.184 293.76 112.604 294.438 112.148 295.297C111.693 296.156 111.393 297.133 111.25 298.227L111.289 298.324ZM127.754 311V308.539L130.938 307.992V292.895L127.754 292.348V289.867H134.785V307.992L137.969 308.539V311H127.754ZM130.742 284.652V280.531H134.785V284.652H130.742ZM148.086 311.332C146.523 311.332 145.28 310.876 144.355 309.965C143.444 309.04 142.988 307.569 142.988 305.551V292.719H139.648V289.867H142.988V284.77H146.836V289.867H151.426V292.719H146.836V305.551C146.836 306.566 147.038 307.315 147.441 307.797C147.845 308.279 148.385 308.52 149.062 308.52C149.518 308.52 150.026 308.48 150.586 308.402C151.146 308.311 151.582 308.233 151.895 308.168L152.422 310.688C151.862 310.857 151.172 311.007 150.352 311.137C149.544 311.267 148.789 311.332 148.086 311.332ZM161.719 311.41C159.518 311.41 157.845 310.876 156.699 309.809C155.553 308.728 154.98 307.211 154.98 305.258C154.98 303.253 155.801 301.645 157.441 300.434C159.082 299.21 161.361 298.598 164.277 298.598H168.047V296.527C168.047 295.251 167.656 294.262 166.875 293.559C166.107 292.855 165.02 292.504 163.613 292.504C162.728 292.504 161.96 292.615 161.309 292.836C160.658 293.044 160.065 293.337 159.531 293.715L159.121 296.664H156.152V291.82C157.103 291.052 158.21 290.473 159.473 290.082C160.736 289.678 162.135 289.477 163.672 289.477C166.237 289.477 168.249 290.089 169.707 291.312C171.165 292.536 171.895 294.288 171.895 296.566V306.742C171.895 307.016 171.895 307.283 171.895 307.543C171.908 307.803 171.927 308.064 171.953 308.324L174.004 308.539V311H168.477C168.359 310.427 168.268 309.913 168.203 309.457C168.138 309.001 168.092 308.546 168.066 308.09C167.324 309.04 166.393 309.835 165.273 310.473C164.167 311.098 162.982 311.41 161.719 311.41ZM162.285 308.188C163.561 308.188 164.727 307.882 165.781 307.27C166.836 306.658 167.591 305.922 168.047 305.062V301.234H164.141C162.37 301.234 161.042 301.658 160.156 302.504C159.271 303.35 158.828 304.294 158.828 305.336C158.828 306.26 159.115 306.97 159.688 307.465C160.26 307.947 161.126 308.188 162.285 308.188ZM176.992 311V308.539L180.176 307.992V292.895L176.992 292.348V289.867H183.633L183.887 292.621C184.564 291.618 185.436 290.844 186.504 290.297C187.572 289.75 188.809 289.477 190.215 289.477C191.621 289.477 192.826 289.802 193.828 290.453C194.844 291.104 195.605 292.081 196.113 293.383C196.777 292.185 197.656 291.234 198.75 290.531C199.844 289.828 201.12 289.477 202.578 289.477C204.74 289.477 206.445 290.219 207.695 291.703C208.945 293.174 209.57 295.395 209.57 298.363V307.992L212.754 308.539V311H202.52V308.539L205.703 307.992V298.324C205.703 296.241 205.345 294.77 204.629 293.91C203.913 293.038 202.852 292.602 201.445 292.602C200.104 292.602 199.023 293.077 198.203 294.027C197.396 294.965 196.927 296.15 196.797 297.582V307.992L199.98 308.539V311H189.766V308.539L192.949 307.992V298.324C192.949 296.345 192.578 294.9 191.836 293.988C191.107 293.064 190.046 292.602 188.652 292.602C187.48 292.602 186.517 292.842 185.762 293.324C185.007 293.806 184.427 294.483 184.023 295.355V307.992L187.207 308.539V311H176.992ZM224.863 311.41C222.91 311.41 221.224 310.954 219.805 310.043C218.398 309.118 217.311 307.849 216.543 306.234C215.775 304.607 215.391 302.751 215.391 300.668V300.238C215.391 298.155 215.775 296.306 216.543 294.691C217.311 293.064 218.398 291.788 219.805 290.863C221.224 289.939 222.897 289.477 224.824 289.477C226.777 289.477 228.457 289.939 229.863 290.863C231.283 291.788 232.376 293.057 233.145 294.672C233.913 296.286 234.297 298.142 234.297 300.238V300.668C234.297 302.764 233.913 304.626 233.145 306.254C232.376 307.868 231.289 309.132 229.883 310.043C228.477 310.954 226.803 311.41 224.863 311.41ZM224.863 308.402C226.087 308.402 227.109 308.07 227.93 307.406C228.763 306.729 229.388 305.811 229.805 304.652C230.234 303.48 230.449 302.152 230.449 300.668V300.238C230.449 298.754 230.234 297.432 229.805 296.273C229.388 295.102 228.763 294.184 227.93 293.52C227.096 292.842 226.061 292.504 224.824 292.504C223.6 292.504 222.572 292.842 221.738 293.52C220.905 294.184 220.28 295.102 219.863 296.273C219.447 297.432 219.238 298.754 219.238 300.238V300.668C219.238 302.152 219.447 303.48 219.863 304.652C220.28 305.811 220.905 306.729 221.738 307.406C222.585 308.07 223.626 308.402 224.863 308.402ZM245.82 311.41C244.401 311.41 243.073 311.267 241.836 310.98C240.599 310.694 239.284 310.251 237.891 309.652L237.852 304.633H240.762L241.484 307.66C242.214 307.96 242.917 308.181 243.594 308.324C244.284 308.454 245.026 308.52 245.82 308.52C247.383 308.52 248.503 308.22 249.18 307.621C249.857 307.022 250.195 306.28 250.195 305.395C250.195 304.561 249.85 303.858 249.16 303.285C248.483 302.699 247.246 302.204 245.449 301.801C242.897 301.215 241.016 300.434 239.805 299.457C238.607 298.467 238.008 297.152 238.008 295.512C238.008 294.366 238.34 293.344 239.004 292.445C239.668 291.534 240.592 290.811 241.777 290.277C242.962 289.743 244.342 289.477 245.918 289.477C247.52 289.477 248.887 289.659 250.02 290.023C251.165 290.388 252.161 290.876 253.008 291.488L253.203 296.312H250.312L249.688 293.5C249.232 293.161 248.691 292.901 248.066 292.719C247.441 292.536 246.725 292.445 245.918 292.445C244.72 292.445 243.743 292.725 242.988 293.285C242.246 293.845 241.875 294.548 241.875 295.395C241.875 295.889 241.979 296.319 242.188 296.684C242.409 297.048 242.826 297.38 243.438 297.68C244.049 297.966 244.948 298.253 246.133 298.539C249.076 299.229 251.126 300.108 252.285 301.176C253.457 302.243 254.043 303.559 254.043 305.121C254.043 306.905 253.379 308.402 252.051 309.613C250.736 310.811 248.659 311.41 245.82 311.41ZM274.648 311.332C273.086 311.332 271.842 310.876 270.918 309.965C270.007 309.04 269.551 307.569 269.551 305.551V292.719H266.211V289.867H269.551V284.77H273.398V289.867H277.988V292.719H273.398V305.551C273.398 306.566 273.6 307.315 274.004 307.797C274.408 308.279 274.948 308.52 275.625 308.52C276.081 308.52 276.589 308.48 277.148 308.402C277.708 308.311 278.145 308.233 278.457 308.168L278.984 310.688C278.424 310.857 277.734 311.007 276.914 311.137C276.107 311.267 275.352 311.332 274.648 311.332ZM290.605 311.41C288.652 311.41 286.966 310.954 285.547 310.043C284.141 309.118 283.053 307.849 282.285 306.234C281.517 304.607 281.133 302.751 281.133 300.668V300.238C281.133 298.155 281.517 296.306 282.285 294.691C283.053 293.064 284.141 291.788 285.547 290.863C286.966 289.939 288.639 289.477 290.566 289.477C292.52 289.477 294.199 289.939 295.605 290.863C297.025 291.788 298.118 293.057 298.887 294.672C299.655 296.286 300.039 298.142 300.039 300.238V300.668C300.039 302.764 299.655 304.626 298.887 306.254C298.118 307.868 297.031 309.132 295.625 310.043C294.219 310.954 292.546 311.41 290.605 311.41ZM290.605 308.402C291.829 308.402 292.852 308.07 293.672 307.406C294.505 306.729 295.13 305.811 295.547 304.652C295.977 303.48 296.191 302.152 296.191 300.668V300.238C296.191 298.754 295.977 297.432 295.547 296.273C295.13 295.102 294.505 294.184 293.672 293.52C292.839 292.842 291.803 292.504 290.566 292.504C289.342 292.504 288.314 292.842 287.48 293.52C286.647 294.184 286.022 295.102 285.605 296.273C285.189 297.432 284.98 298.754 284.98 300.238V300.668C284.98 302.152 285.189 303.48 285.605 304.652C286.022 305.811 286.647 306.729 287.48 307.406C288.327 308.07 289.368 308.402 290.605 308.402ZM312.012 311.41C310.293 311.41 308.815 310.987 307.578 310.141C306.354 309.281 305.417 308.09 304.766 306.566C304.115 305.043 303.789 303.266 303.789 301.234V300.824C303.789 298.559 304.115 296.573 304.766 294.867C305.417 293.161 306.361 291.84 307.598 290.902C308.835 289.952 310.319 289.477 312.051 289.477C313.301 289.477 314.401 289.711 315.352 290.18C316.315 290.635 317.135 291.299 317.812 292.172V283.559L314.629 283.012V280.531H317.812H321.66V307.992L324.844 308.539V311H318.32L318.008 308.48C317.318 309.444 316.471 310.173 315.469 310.668C314.479 311.163 313.327 311.41 312.012 311.41ZM312.988 308.285C314.134 308.285 315.098 308.025 315.879 307.504C316.66 306.983 317.305 306.247 317.812 305.297V295.492C317.318 294.607 316.673 293.904 315.879 293.383C315.085 292.862 314.134 292.602 313.027 292.602C311.803 292.602 310.794 292.953 310 293.656C309.206 294.346 308.613 295.31 308.223 296.547C307.832 297.771 307.637 299.197 307.637 300.824V301.234C307.637 303.357 308.073 305.062 308.945 306.352C309.818 307.641 311.165 308.285 312.988 308.285ZM334.336 311.41C332.135 311.41 330.462 310.876 329.316 309.809C328.171 308.728 327.598 307.211 327.598 305.258C327.598 303.253 328.418 301.645 330.059 300.434C331.699 299.21 333.978 298.598 336.895 298.598H340.664V296.527C340.664 295.251 340.273 294.262 339.492 293.559C338.724 292.855 337.637 292.504 336.23 292.504C335.345 292.504 334.577 292.615 333.926 292.836C333.275 293.044 332.682 293.337 332.148 293.715L331.738 296.664H328.77V291.82C329.72 291.052 330.827 290.473 332.09 290.082C333.353 289.678 334.753 289.477 336.289 289.477C338.854 289.477 340.866 290.089 342.324 291.312C343.783 292.536 344.512 294.288 344.512 296.566V306.742C344.512 307.016 344.512 307.283 344.512 307.543C344.525 307.803 344.544 308.064 344.57 308.324L346.621 308.539V311H341.094C340.977 310.427 340.885 309.913 340.82 309.457C340.755 309.001 340.71 308.546 340.684 308.09C339.941 309.04 339.01 309.835 337.891 310.473C336.784 311.098 335.599 311.41 334.336 311.41ZM334.902 308.188C336.178 308.188 337.344 307.882 338.398 307.27C339.453 306.658 340.208 305.922 340.664 305.062V301.234H336.758C334.987 301.234 333.659 301.658 332.773 302.504C331.888 303.35 331.445 304.294 331.445 305.336C331.445 306.26 331.732 306.97 332.305 307.465C332.878 307.947 333.743 308.188 334.902 308.188ZM358.164 311.41C356.745 311.41 355.417 311.267 354.18 310.98C352.943 310.694 351.628 310.251 350.234 309.652L350.195 304.633H353.105L353.828 307.66C354.557 307.96 355.26 308.181 355.938 308.324C356.628 308.454 357.37 308.52 358.164 308.52C359.727 308.52 360.846 308.22 361.523 307.621C362.201 307.022 362.539 306.28 362.539 305.395C362.539 304.561 362.194 303.858 361.504 303.285C360.827 302.699 359.59 302.204 357.793 301.801C355.241 301.215 353.359 300.434 352.148 299.457C350.951 298.467 350.352 297.152 350.352 295.512C350.352 294.366 350.684 293.344 351.348 292.445C352.012 291.534 352.936 290.811 354.121 290.277C355.306 289.743 356.686 289.477 358.262 289.477C359.863 289.477 361.23 289.659 362.363 290.023C363.509 290.388 364.505 290.876 365.352 291.488L365.547 296.312H362.656L362.031 293.5C361.576 293.161 361.035 292.901 360.41 292.719C359.785 292.536 359.069 292.445 358.262 292.445C357.064 292.445 356.087 292.725 355.332 293.285C354.59 293.845 354.219 294.548 354.219 295.395C354.219 295.889 354.323 296.319 354.531 296.684C354.753 297.048 355.169 297.38 355.781 297.68C356.393 297.966 357.292 298.253 358.477 298.539C361.419 299.229 363.47 300.108 364.629 301.176C365.801 302.243 366.387 303.559 366.387 305.121C366.387 306.905 365.723 308.402 364.395 309.613C363.079 310.811 361.003 311.41 358.164 311.41ZM386.367 311.41C384.167 311.41 382.493 310.876 381.348 309.809C380.202 308.728 379.629 307.211 379.629 305.258C379.629 303.253 380.449 301.645 382.09 300.434C383.73 299.21 386.009 298.598 388.926 298.598H392.695V296.527C392.695 295.251 392.305 294.262 391.523 293.559C390.755 292.855 389.668 292.504 388.262 292.504C387.376 292.504 386.608 292.615 385.957 292.836C385.306 293.044 384.714 293.337 384.18 293.715L383.77 296.664H380.801V291.82C381.751 291.052 382.858 290.473 384.121 290.082C385.384 289.678 386.784 289.477 388.32 289.477C390.885 289.477 392.897 290.089 394.355 291.312C395.814 292.536 396.543 294.288 396.543 296.566V306.742C396.543 307.016 396.543 307.283 396.543 307.543C396.556 307.803 396.576 308.064 396.602 308.324L398.652 308.539V311H393.125C393.008 310.427 392.917 309.913 392.852 309.457C392.786 309.001 392.741 308.546 392.715 308.09C391.973 309.04 391.042 309.835 389.922 310.473C388.815 311.098 387.63 311.41 386.367 311.41ZM386.934 308.188C388.21 308.188 389.375 307.882 390.43 307.27C391.484 306.658 392.24 305.922 392.695 305.062V301.234H388.789C387.018 301.234 385.69 301.658 384.805 302.504C383.919 303.35 383.477 304.294 383.477 305.336C383.477 306.26 383.763 306.97 384.336 307.465C384.909 307.947 385.775 308.188 386.934 308.188ZM410.195 311.41C408.776 311.41 407.448 311.267 406.211 310.98C404.974 310.694 403.659 310.251 402.266 309.652L402.227 304.633H405.137L405.859 307.66C406.589 307.96 407.292 308.181 407.969 308.324C408.659 308.454 409.401 308.52 410.195 308.52C411.758 308.52 412.878 308.22 413.555 307.621C414.232 307.022 414.57 306.28 414.57 305.395C414.57 304.561 414.225 303.858 413.535 303.285C412.858 302.699 411.621 302.204 409.824 301.801C407.272 301.215 405.391 300.434 404.18 299.457C402.982 298.467 402.383 297.152 402.383 295.512C402.383 294.366 402.715 293.344 403.379 292.445C404.043 291.534 404.967 290.811 406.152 290.277C407.337 289.743 408.717 289.477 410.293 289.477C411.895 289.477 413.262 289.659 414.395 290.023C415.54 290.388 416.536 290.876 417.383 291.488L417.578 296.312H414.688L414.062 293.5C413.607 293.161 413.066 292.901 412.441 292.719C411.816 292.536 411.1 292.445 410.293 292.445C409.095 292.445 408.118 292.725 407.363 293.285C406.621 293.845 406.25 294.548 406.25 295.395C406.25 295.889 406.354 296.319 406.562 296.684C406.784 297.048 407.201 297.38 407.812 297.68C408.424 297.966 409.323 298.253 410.508 298.539C413.451 299.229 415.501 300.108 416.66 301.176C417.832 302.243 418.418 303.559 418.418 305.121C418.418 306.905 417.754 308.402 416.426 309.613C415.111 310.811 413.034 311.41 410.195 311.41ZM56.3672 364V361.539L59.5508 360.992V345.719H56.25V342.867H59.5508V340.191C59.5508 337.939 60.1367 336.201 61.3086 334.977C62.4935 333.74 64.1406 333.121 66.25 333.121C66.6927 333.121 67.168 333.16 67.6758 333.238C68.1966 333.303 68.7305 333.401 69.2773 333.531L68.8086 336.461C68.5742 336.409 68.2552 336.363 67.8516 336.324C67.4609 336.285 67.0898 336.266 66.7383 336.266C65.6055 336.266 64.7656 336.604 64.2188 337.281C63.6719 337.945 63.3984 338.915 63.3984 340.191V342.867H68.0078V345.719H63.3984V360.992L67.0312 361.539V364H56.3672ZM79.9805 364.41C78.0273 364.41 76.3411 363.954 74.9219 363.043C73.5156 362.118 72.4284 360.849 71.6602 359.234C70.8919 357.607 70.5078 355.751 70.5078 353.668V353.238C70.5078 351.155 70.8919 349.306 71.6602 347.691C72.4284 346.064 73.5156 344.788 74.9219 343.863C76.3411 342.939 78.0143 342.477 79.9414 342.477C81.8945 342.477 83.5742 342.939 84.9805 343.863C86.3997 344.788 87.4935 346.057 88.2617 347.672C89.0299 349.286 89.4141 351.142 89.4141 353.238V353.668C89.4141 355.764 89.0299 357.626 88.2617 359.254C87.4935 360.868 86.4062 362.132 85 363.043C83.5938 363.954 81.9206 364.41 79.9805 364.41ZM79.9805 361.402C81.2044 361.402 82.2266 361.07 83.0469 360.406C83.8802 359.729 84.5052 358.811 84.9219 357.652C85.3516 356.48 85.5664 355.152 85.5664 353.668V353.238C85.5664 351.754 85.3516 350.432 84.9219 349.273C84.5052 348.102 83.8802 347.184 83.0469 346.52C82.2135 345.842 81.1784 345.504 79.9414 345.504C78.7174 345.504 77.6888 345.842 76.8555 346.52C76.0221 347.184 75.3971 348.102 74.9805 349.273C74.5638 350.432 74.3555 351.754 74.3555 353.238V353.668C74.3555 355.152 74.5638 356.48 74.9805 357.652C75.3971 358.811 76.0221 359.729 76.8555 360.406C77.7018 361.07 78.7435 361.402 79.9805 361.402ZM92.3438 364V361.539L95.5273 360.992V345.895L92.3438 345.348V342.867H98.9648L99.2969 345.562L99.3359 345.934C99.9349 344.853 100.671 344.007 101.543 343.395C102.428 342.783 103.438 342.477 104.57 342.477C104.974 342.477 105.384 342.516 105.801 342.594C106.23 342.659 106.536 342.724 106.719 342.789L106.211 346.363L103.535 346.207C102.52 346.142 101.667 346.376 100.977 346.91C100.286 347.431 99.7526 348.134 99.375 349.02V360.992L102.559 361.539V364H92.3438ZM109.062 364V361.539L112.246 360.992V345.895L109.062 345.348V342.867H115.703L115.957 345.621C116.634 344.618 117.507 343.844 118.574 343.297C119.642 342.75 120.879 342.477 122.285 342.477C123.691 342.477 124.896 342.802 125.898 343.453C126.914 344.104 127.676 345.081 128.184 346.383C128.848 345.185 129.727 344.234 130.82 343.531C131.914 342.828 133.19 342.477 134.648 342.477C136.81 342.477 138.516 343.219 139.766 344.703C141.016 346.174 141.641 348.395 141.641 351.363V360.992L144.824 361.539V364H134.59V361.539L137.773 360.992V351.324C137.773 349.241 137.415 347.77 136.699 346.91C135.983 346.038 134.922 345.602 133.516 345.602C132.174 345.602 131.094 346.077 130.273 347.027C129.466 347.965 128.997 349.15 128.867 350.582V360.992L132.051 361.539V364H121.836V361.539L125.02 360.992V351.324C125.02 349.345 124.648 347.9 123.906 346.988C123.177 346.064 122.116 345.602 120.723 345.602C119.551 345.602 118.587 345.842 117.832 346.324C117.077 346.806 116.497 347.483 116.094 348.355V360.992L119.277 361.539V364H109.062ZM154.531 364.41C152.331 364.41 150.658 363.876 149.512 362.809C148.366 361.728 147.793 360.211 147.793 358.258C147.793 356.253 148.613 354.645 150.254 353.434C151.895 352.21 154.173 351.598 157.09 351.598H160.859V349.527C160.859 348.251 160.469 347.262 159.688 346.559C158.919 345.855 157.832 345.504 156.426 345.504C155.54 345.504 154.772 345.615 154.121 345.836C153.47 346.044 152.878 346.337 152.344 346.715L151.934 349.664H148.965V344.82C149.915 344.052 151.022 343.473 152.285 343.082C153.548 342.678 154.948 342.477 156.484 342.477C159.049 342.477 161.061 343.089 162.52 344.312C163.978 345.536 164.707 347.288 164.707 349.566V359.742C164.707 360.016 164.707 360.283 164.707 360.543C164.72 360.803 164.74 361.064 164.766 361.324L166.816 361.539V364H161.289C161.172 363.427 161.081 362.913 161.016 362.457C160.951 362.001 160.905 361.546 160.879 361.09C160.137 362.04 159.206 362.835 158.086 363.473C156.979 364.098 155.794 364.41 154.531 364.41ZM155.098 361.188C156.374 361.188 157.539 360.882 158.594 360.27C159.648 359.658 160.404 358.922 160.859 358.062V354.234H156.953C155.182 354.234 153.854 354.658 152.969 355.504C152.083 356.35 151.641 357.294 151.641 358.336C151.641 359.26 151.927 359.97 152.5 360.465C153.073 360.947 153.939 361.188 155.098 361.188ZM178.359 364.41C176.94 364.41 175.612 364.267 174.375 363.98C173.138 363.694 171.823 363.251 170.43 362.652L170.391 357.633H173.301L174.023 360.66C174.753 360.96 175.456 361.181 176.133 361.324C176.823 361.454 177.565 361.52 178.359 361.52C179.922 361.52 181.042 361.22 181.719 360.621C182.396 360.022 182.734 359.28 182.734 358.395C182.734 357.561 182.389 356.858 181.699 356.285C181.022 355.699 179.785 355.204 177.988 354.801C175.436 354.215 173.555 353.434 172.344 352.457C171.146 351.467 170.547 350.152 170.547 348.512C170.547 347.366 170.879 346.344 171.543 345.445C172.207 344.534 173.132 343.811 174.316 343.277C175.501 342.743 176.882 342.477 178.457 342.477C180.059 342.477 181.426 342.659 182.559 343.023C183.704 343.388 184.701 343.876 185.547 344.488L185.742 349.312H182.852L182.227 346.5C181.771 346.161 181.23 345.901 180.605 345.719C179.98 345.536 179.264 345.445 178.457 345.445C177.259 345.445 176.283 345.725 175.527 346.285C174.785 346.845 174.414 347.548 174.414 348.395C174.414 348.889 174.518 349.319 174.727 349.684C174.948 350.048 175.365 350.38 175.977 350.68C176.589 350.966 177.487 351.253 178.672 351.539C181.615 352.229 183.665 353.108 184.824 354.176C185.996 355.243 186.582 356.559 186.582 358.121C186.582 359.905 185.918 361.402 184.59 362.613C183.275 363.811 181.198 364.41 178.359 364.41ZM208.027 364.41C206.309 364.41 204.831 363.987 203.594 363.141C202.37 362.281 201.432 361.09 200.781 359.566C200.13 358.043 199.805 356.266 199.805 354.234V353.824C199.805 351.559 200.13 349.573 200.781 347.867C201.432 346.161 202.376 344.84 203.613 343.902C204.85 342.952 206.335 342.477 208.066 342.477C209.316 342.477 210.417 342.711 211.367 343.18C212.331 343.635 213.151 344.299 213.828 345.172V336.559L210.645 336.012V333.531H213.828H217.676V360.992L220.859 361.539V364H214.336L214.023 361.48C213.333 362.444 212.487 363.173 211.484 363.668C210.495 364.163 209.342 364.41 208.027 364.41ZM209.004 361.285C210.15 361.285 211.113 361.025 211.895 360.504C212.676 359.983 213.32 359.247 213.828 358.297V348.492C213.333 347.607 212.689 346.904 211.895 346.383C211.1 345.862 210.15 345.602 209.043 345.602C207.819 345.602 206.81 345.953 206.016 346.656C205.221 347.346 204.629 348.31 204.238 349.547C203.848 350.771 203.652 352.197 203.652 353.824V354.234C203.652 356.357 204.089 358.062 204.961 359.352C205.833 360.641 207.181 361.285 209.004 361.285ZM233.027 364.41C231.074 364.41 229.375 363.967 227.93 363.082C226.484 362.184 225.365 360.94 224.57 359.352C223.789 357.763 223.398 355.927 223.398 353.844V352.984C223.398 350.979 223.809 349.189 224.629 347.613C225.462 346.025 226.562 344.775 227.93 343.863C229.31 342.939 230.814 342.477 232.441 342.477C234.342 342.477 235.931 342.867 237.207 343.648C238.496 344.43 239.466 345.53 240.117 346.949C240.768 348.355 241.094 350.016 241.094 351.93V354.332H227.383L227.324 354.43C227.35 355.784 227.585 356.988 228.027 358.043C228.483 359.085 229.134 359.905 229.98 360.504C230.827 361.103 231.842 361.402 233.027 361.402C234.329 361.402 235.469 361.22 236.445 360.855C237.435 360.478 238.288 359.964 239.004 359.312L240.508 361.812C239.753 362.542 238.75 363.16 237.5 363.668C236.263 364.163 234.772 364.41 233.027 364.41ZM227.5 351.324H237.246V350.816C237.246 349.801 237.064 348.896 236.699 348.102C236.348 347.294 235.814 346.663 235.098 346.207C234.395 345.738 233.509 345.504 232.441 345.504C231.582 345.504 230.801 345.758 230.098 346.266C229.395 346.76 228.815 347.438 228.359 348.297C227.904 349.156 227.604 350.133 227.461 351.227L227.5 351.324ZM253.477 372.125V369.645L256.465 369.098V345.895L253.281 345.348V342.867H259.766L260.117 345.445C260.82 344.482 261.673 343.746 262.676 343.238C263.691 342.73 264.863 342.477 266.191 342.477C267.936 342.477 269.427 342.952 270.664 343.902C271.901 344.84 272.845 346.161 273.496 347.867C274.147 349.56 274.473 351.546 274.473 353.824V354.234C274.473 356.266 274.141 358.043 273.477 359.566C272.826 361.09 271.888 362.281 270.664 363.141C269.44 363.987 267.969 364.41 266.25 364.41C264.948 364.41 263.802 364.195 262.812 363.766C261.836 363.323 261.003 362.672 260.312 361.812V369.098L263.672 369.645V372.125H253.477ZM265.059 361.402C266.882 361.402 268.262 360.738 269.199 359.41C270.137 358.082 270.605 356.357 270.605 354.234V353.824C270.605 352.21 270.397 350.79 269.98 349.566C269.564 348.329 268.939 347.359 268.105 346.656C267.285 345.953 266.257 345.602 265.02 345.602C263.926 345.602 262.988 345.849 262.207 346.344C261.426 346.839 260.794 347.516 260.312 348.375V358.668C260.794 359.54 261.419 360.217 262.188 360.699C262.969 361.168 263.926 361.402 265.059 361.402ZM284.297 364.41C282.096 364.41 280.423 363.876 279.277 362.809C278.132 361.728 277.559 360.211 277.559 358.258C277.559 356.253 278.379 354.645 280.02 353.434C281.66 352.21 283.939 351.598 286.855 351.598H290.625V349.527C290.625 348.251 290.234 347.262 289.453 346.559C288.685 345.855 287.598 345.504 286.191 345.504C285.306 345.504 284.538 345.615 283.887 345.836C283.236 346.044 282.643 346.337 282.109 346.715L281.699 349.664H278.73V344.82C279.681 344.052 280.788 343.473 282.051 343.082C283.314 342.678 284.714 342.477 286.25 342.477C288.815 342.477 290.827 343.089 292.285 344.312C293.743 345.536 294.473 347.288 294.473 349.566V359.742C294.473 360.016 294.473 360.283 294.473 360.543C294.486 360.803 294.505 361.064 294.531 361.324L296.582 361.539V364H291.055C290.938 363.427 290.846 362.913 290.781 362.457C290.716 362.001 290.671 361.546 290.645 361.09C289.902 362.04 288.971 362.835 287.852 363.473C286.745 364.098 285.56 364.41 284.297 364.41ZM284.863 361.188C286.139 361.188 287.305 360.882 288.359 360.27C289.414 359.658 290.169 358.922 290.625 358.062V354.234H286.719C284.948 354.234 283.62 354.658 282.734 355.504C281.849 356.35 281.406 357.294 281.406 358.336C281.406 359.26 281.693 359.97 282.266 360.465C282.839 360.947 283.704 361.188 284.863 361.188ZM308.848 372.535C307.832 372.535 306.732 372.392 305.547 372.105C304.362 371.832 303.32 371.454 302.422 370.973L303.418 367.984C304.134 368.362 304.98 368.674 305.957 368.922C306.934 369.169 307.884 369.293 308.809 369.293C310.527 369.293 311.784 368.811 312.578 367.848C313.385 366.884 313.789 365.51 313.789 363.727V361.715C313.099 362.6 312.272 363.271 311.309 363.727C310.345 364.182 309.238 364.41 307.988 364.41C306.27 364.41 304.785 363.987 303.535 363.141C302.285 362.281 301.322 361.09 300.645 359.566C299.98 358.03 299.648 356.253 299.648 354.234V353.824C299.648 351.559 299.98 349.573 300.645 347.867C301.322 346.161 302.285 344.84 303.535 343.902C304.785 342.952 306.283 342.477 308.027 342.477C309.355 342.477 310.521 342.737 311.523 343.258C312.526 343.779 313.366 344.534 314.043 345.523L314.395 342.867H317.637V363.727C317.637 365.549 317.292 367.118 316.602 368.434C315.924 369.749 314.928 370.758 313.613 371.461C312.311 372.177 310.723 372.535 308.848 372.535ZM308.945 361.285C310.104 361.285 311.074 361.025 311.855 360.504C312.637 359.97 313.281 359.221 313.789 358.258V348.531C313.294 347.633 312.65 346.923 311.855 346.402C311.061 345.868 310.104 345.602 308.984 345.602C307.76 345.602 306.738 345.953 305.918 346.656C305.111 347.359 304.505 348.329 304.102 349.566C303.698 350.79 303.496 352.21 303.496 353.824V354.234C303.496 356.357 303.945 358.062 304.844 359.352C305.742 360.641 307.109 361.285 308.945 361.285ZM317.051 346.012L315.547 342.867H320.254V345.328L317.051 346.012ZM329.023 364.41C326.823 364.41 325.15 363.876 324.004 362.809C322.858 361.728 322.285 360.211 322.285 358.258C322.285 356.253 323.105 354.645 324.746 353.434C326.387 352.21 328.665 351.598 331.582 351.598H335.352V349.527C335.352 348.251 334.961 347.262 334.18 346.559C333.411 345.855 332.324 345.504 330.918 345.504C330.033 345.504 329.264 345.615 328.613 345.836C327.962 346.044 327.37 346.337 326.836 346.715L326.426 349.664H323.457V344.82C324.408 344.052 325.514 343.473 326.777 343.082C328.04 342.678 329.44 342.477 330.977 342.477C333.542 342.477 335.553 343.089 337.012 344.312C338.47 345.536 339.199 347.288 339.199 349.566V359.742C339.199 360.016 339.199 360.283 339.199 360.543C339.212 360.803 339.232 361.064 339.258 361.324L341.309 361.539V364H335.781C335.664 363.427 335.573 362.913 335.508 362.457C335.443 362.001 335.397 361.546 335.371 361.09C334.629 362.04 333.698 362.835 332.578 363.473C331.471 364.098 330.286 364.41 329.023 364.41ZM329.59 361.188C330.866 361.188 332.031 360.882 333.086 360.27C334.141 359.658 334.896 358.922 335.352 358.062V354.234H331.445C329.674 354.234 328.346 354.658 327.461 355.504C326.576 356.35 326.133 357.294 326.133 358.336C326.133 359.26 326.419 359.97 326.992 360.465C327.565 360.947 328.431 361.188 329.59 361.188ZM344.297 364V361.539L347.48 360.992V345.895L344.297 345.348V342.867H350.938L351.191 345.621C351.868 344.618 352.741 343.844 353.809 343.297C354.876 342.75 356.113 342.477 357.52 342.477C358.926 342.477 360.13 342.802 361.133 343.453C362.148 344.104 362.91 345.081 363.418 346.383C364.082 345.185 364.961 344.234 366.055 343.531C367.148 342.828 368.424 342.477 369.883 342.477C372.044 342.477 373.75 343.219 375 344.703C376.25 346.174 376.875 348.395 376.875 351.363V360.992L380.059 361.539V364H369.824V361.539L373.008 360.992V351.324C373.008 349.241 372.65 347.77 371.934 346.91C371.217 346.038 370.156 345.602 368.75 345.602C367.409 345.602 366.328 346.077 365.508 347.027C364.701 347.965 364.232 349.15 364.102 350.582V360.992L367.285 361.539V364H357.07V361.539L360.254 360.992V351.324C360.254 349.345 359.883 347.9 359.141 346.988C358.411 346.064 357.35 345.602 355.957 345.602C354.785 345.602 353.822 345.842 353.066 346.324C352.311 346.806 351.732 347.483 351.328 348.355V360.992L354.512 361.539V364H344.297ZM392.246 364.41C390.293 364.41 388.594 363.967 387.148 363.082C385.703 362.184 384.583 360.94 383.789 359.352C383.008 357.763 382.617 355.927 382.617 353.844V352.984C382.617 350.979 383.027 349.189 383.848 347.613C384.681 346.025 385.781 344.775 387.148 343.863C388.529 342.939 390.033 342.477 391.66 342.477C393.561 342.477 395.15 342.867 396.426 343.648C397.715 344.43 398.685 345.53 399.336 346.949C399.987 348.355 400.312 350.016 400.312 351.93V354.332H386.602L386.543 354.43C386.569 355.784 386.803 356.988 387.246 358.043C387.702 359.085 388.353 359.905 389.199 360.504C390.046 361.103 391.061 361.402 392.246 361.402C393.548 361.402 394.688 361.22 395.664 360.855C396.654 360.478 397.507 359.964 398.223 359.312L399.727 361.812C398.971 362.542 397.969 363.16 396.719 363.668C395.482 364.163 393.991 364.41 392.246 364.41ZM386.719 351.324H396.465V350.816C396.465 349.801 396.283 348.896 395.918 348.102C395.566 347.294 395.033 346.663 394.316 346.207C393.613 345.738 392.728 345.504 391.66 345.504C390.801 345.504 390.02 345.758 389.316 346.266C388.613 346.76 388.034 347.438 387.578 348.297C387.122 349.156 386.823 350.133 386.68 351.227L386.719 351.324ZM403.32 364V361.539L406.504 360.992V345.895L403.32 345.348V342.867H409.941L410.215 346.012C410.918 344.892 411.797 344.026 412.852 343.414C413.919 342.789 415.13 342.477 416.484 342.477C418.763 342.477 420.527 343.147 421.777 344.488C423.027 345.816 423.652 347.874 423.652 350.66V360.992L426.836 361.539V364H416.621V361.539L419.805 360.992V350.738C419.805 348.876 419.434 347.555 418.691 346.773C417.962 345.992 416.842 345.602 415.332 345.602C414.225 345.602 413.242 345.868 412.383 346.402C411.536 346.936 410.859 347.665 410.352 348.59V360.992L413.535 361.539V364H403.32ZM436.25 364.332C434.688 364.332 433.444 363.876 432.52 362.965C431.608 362.04 431.152 360.569 431.152 358.551V345.719H427.812V342.867H431.152V337.77H435V342.867H439.59V345.719H435V358.551C435 359.566 435.202 360.315 435.605 360.797C436.009 361.279 436.549 361.52 437.227 361.52C437.682 361.52 438.19 361.48 438.75 361.402C439.31 361.311 439.746 361.233 440.059 361.168L440.586 363.688C440.026 363.857 439.336 364.007 438.516 364.137C437.708 364.267 436.953 364.332 436.25 364.332ZM452.207 364.41C450.254 364.41 448.568 363.954 447.148 363.043C445.742 362.118 444.655 360.849 443.887 359.234C443.118 357.607 442.734 355.751 442.734 353.668V353.238C442.734 351.155 443.118 349.306 443.887 347.691C444.655 346.064 445.742 344.788 447.148 343.863C448.568 342.939 450.241 342.477 452.168 342.477C454.121 342.477 455.801 342.939 457.207 343.863C458.626 344.788 459.72 346.057 460.488 347.672C461.257 349.286 461.641 351.142 461.641 353.238V353.668C461.641 355.764 461.257 357.626 460.488 359.254C459.72 360.868 458.633 362.132 457.227 363.043C455.82 363.954 454.147 364.41 452.207 364.41ZM452.207 361.402C453.431 361.402 454.453 361.07 455.273 360.406C456.107 359.729 456.732 358.811 457.148 357.652C457.578 356.48 457.793 355.152 457.793 353.668V353.238C457.793 351.754 457.578 350.432 457.148 349.273C456.732 348.102 456.107 347.184 455.273 346.52C454.44 345.842 453.405 345.504 452.168 345.504C450.944 345.504 449.915 345.842 449.082 346.52C448.249 347.184 447.624 348.102 447.207 349.273C446.79 350.432 446.582 351.754 446.582 353.238V353.668C446.582 355.152 446.79 356.48 447.207 357.652C447.624 358.811 448.249 359.729 449.082 360.406C449.928 361.07 450.97 361.402 452.207 361.402ZM466.016 346.812V342.867H469.863V346.812H466.016ZM466.367 370.074L464.199 368.629C464.811 367.691 465.273 366.734 465.586 365.758C465.898 364.781 466.055 363.746 466.055 362.652V359.684H469.902V362.594C469.902 363.87 469.583 365.204 468.945 366.598C468.307 367.991 467.448 369.15 466.367 370.074Z" fill="white"/>
</svg>
