<svg width="528" height="481" viewBox="0 0 528 481" fill="none" xmlns="http://www.w3.org/2000/svg">
<g filter="url(#filter0_d_93_98)">
<rect x="4" width="520" height="473" rx="42" fill="#E94E1B"/>
<path fill-rule="evenodd" clip-rule="evenodd" d="M287.625 213.937C295.979 213.937 303.991 210.961 309.899 205.663C315.806 200.365 319.125 193.18 319.125 185.687C319.125 178.195 315.806 171.01 309.899 165.712C303.991 160.414 295.979 157.437 287.625 157.437C279.271 157.437 271.259 160.414 265.351 165.712C259.444 171.01 256.125 178.195 256.125 185.687C256.125 193.18 259.444 200.365 265.351 205.663C271.259 210.961 279.271 213.937 287.625 213.937ZM327 185.687C327 195.053 322.852 204.035 315.467 210.657C308.083 217.28 298.068 221 287.625 221C277.182 221 267.167 217.28 259.783 210.657C252.398 204.035 248.25 195.053 248.25 185.687C248.25 176.322 252.398 167.34 259.783 160.718C267.167 154.095 277.182 150.375 287.625 150.375C298.068 150.375 308.083 154.095 315.467 160.718C322.852 167.34 327 176.322 327 185.687Z" fill="white"/>
<path d="M275.324 192.355C275.694 196.564 279.404 199.841 286.058 200.237V203.344H289.011V200.216C295.902 199.785 299.926 196.479 299.926 191.691C299.926 187.326 296.855 185.081 291.342 183.922L289.011 183.428V174.953C291.972 175.257 293.846 176.704 294.295 178.71H299.477C299.107 174.649 295.224 171.478 289.011 171.132V168.032H286.058V171.21C280.175 171.725 276.175 174.896 276.175 179.388C276.175 183.357 279.152 185.886 284.105 186.917L286.058 187.348V196.331C283.034 195.922 281.026 194.424 280.577 192.355H275.324ZM286.034 182.792C283.128 182.192 281.553 180.956 281.553 179.106C281.553 177.029 283.254 175.476 286.058 175.024V182.792H286.034ZM289.436 188.061C292.972 188.795 294.594 189.982 294.594 192.08C294.594 194.474 292.571 196.112 289.011 196.416V187.976L289.436 188.061Z" fill="white"/>
<path d="M208.875 108C206.786 108 204.783 108.744 203.307 110.069C201.83 111.393 201 113.189 201 115.062V171.562C201 173.436 201.83 175.232 203.307 176.556C204.783 177.881 206.786 178.625 208.875 178.625H241.029C241.491 176.191 242.168 173.837 243.06 171.562H224.625C224.625 167.816 222.966 164.224 220.012 161.575C217.058 158.926 213.052 157.437 208.875 157.437V129.187C213.052 129.187 217.058 127.699 220.012 125.05C222.966 122.401 224.625 118.809 224.625 115.062H303.375C303.375 118.809 305.034 122.401 307.988 125.05C310.942 127.699 314.948 129.187 319.125 129.187V154.104C322.117 156.505 324.771 159.245 327 162.254V115.062C327 113.189 326.17 111.393 324.693 110.069C323.217 108.744 321.214 108 319.125 108H208.875Z" fill="white"/>
<path d="M279.734 143.9L279.75 143.313C279.748 140.881 279.046 138.49 277.712 136.373C276.378 134.255 274.456 132.482 272.134 131.226C269.811 129.97 267.166 129.273 264.455 129.203C261.744 129.132 259.059 129.691 256.659 130.825C254.259 131.959 252.227 133.629 250.758 135.674C249.29 137.719 248.435 140.069 248.277 142.498C248.119 144.926 248.662 147.35 249.855 149.534C251.048 151.719 252.85 153.59 255.085 154.966C261.893 149.162 270.474 145.309 279.734 143.9Z" fill="white"/>
<path d="M60.3672 311V308.539L62.4766 308.246L72.418 282.562H75.7188L85.4844 308.246L87.5742 308.539V311H79.4102V308.539L81.5586 308.168L79.6836 302.934H68.2969L66.3633 308.168L68.5117 308.539V311H60.3672ZM69.4883 299.711H78.5117L74.332 288.148L74.0977 287.504H73.9805L73.7461 288.148L69.4883 299.711ZM99.3711 311.41C97.457 311.41 95.7904 310.967 94.3711 310.082C92.9518 309.184 91.8516 307.94 91.0703 306.352C90.2891 304.763 89.8984 302.927 89.8984 300.844V300.023C89.8984 298.018 90.276 296.221 91.0312 294.633C91.7865 293.044 92.8737 291.788 94.293 290.863C95.7122 289.939 97.4049 289.477 99.3711 289.477C101.077 289.477 102.568 289.757 103.844 290.316C105.133 290.876 106.214 291.645 107.086 292.621L107.184 297.699H104.176L103.512 294.008C103.069 293.552 102.516 293.188 101.852 292.914C101.188 292.641 100.406 292.504 99.5078 292.504C98.362 292.504 97.3529 292.842 96.4805 293.52C95.6211 294.197 94.9505 295.102 94.4688 296.234C93.987 297.367 93.7461 298.63 93.7461 300.023V300.844C93.7461 302.38 93.9674 303.715 94.4102 304.848C94.8659 305.98 95.5104 306.859 96.3438 307.484C97.1901 308.096 98.1927 308.402 99.3516 308.402C100.654 308.402 101.734 308.044 102.594 307.328C103.453 306.612 103.98 305.629 104.176 304.379H107.633L107.672 304.496C107.607 305.707 107.249 306.84 106.598 307.895C105.947 308.949 105.016 309.802 103.805 310.453C102.607 311.091 101.129 311.41 99.3711 311.41ZM120.816 311.41C118.863 311.41 117.164 310.967 115.719 310.082C114.273 309.184 113.154 307.94 112.359 306.352C111.578 304.763 111.188 302.927 111.188 300.844V299.984C111.188 297.979 111.598 296.189 112.418 294.613C113.251 293.025 114.352 291.775 115.719 290.863C117.099 289.939 118.603 289.477 120.23 289.477C122.132 289.477 123.72 289.867 124.996 290.648C126.285 291.43 127.255 292.53 127.906 293.949C128.557 295.355 128.883 297.016 128.883 298.93V301.332H115.172L115.113 301.43C115.139 302.784 115.374 303.988 115.816 305.043C116.272 306.085 116.923 306.905 117.77 307.504C118.616 308.103 119.632 308.402 120.816 308.402C122.118 308.402 123.258 308.22 124.234 307.855C125.224 307.478 126.077 306.964 126.793 306.312L128.297 308.812C127.542 309.542 126.539 310.16 125.289 310.668C124.052 311.163 122.561 311.41 120.816 311.41ZM115.289 298.324H125.035V297.816C125.035 296.801 124.853 295.896 124.488 295.102C124.137 294.294 123.603 293.663 122.887 293.207C122.184 292.738 121.298 292.504 120.23 292.504C119.371 292.504 118.59 292.758 117.887 293.266C117.184 293.76 116.604 294.438 116.148 295.297C115.693 296.156 115.393 297.133 115.25 298.227L115.289 298.324ZM131.754 311V308.539L134.938 307.992V292.895L131.754 292.348V289.867H138.785V307.992L141.969 308.539V311H131.754ZM134.742 284.652V280.531H138.785V284.652H134.742ZM152.086 311.332C150.523 311.332 149.28 310.876 148.355 309.965C147.444 309.04 146.988 307.569 146.988 305.551V292.719H143.648V289.867H146.988V284.77H150.836V289.867H155.426V292.719H150.836V305.551C150.836 306.566 151.038 307.315 151.441 307.797C151.845 308.279 152.385 308.52 153.062 308.52C153.518 308.52 154.026 308.48 154.586 308.402C155.146 308.311 155.582 308.233 155.895 308.168L156.422 310.688C155.862 310.857 155.172 311.007 154.352 311.137C153.544 311.267 152.789 311.332 152.086 311.332ZM165.719 311.41C163.518 311.41 161.845 310.876 160.699 309.809C159.553 308.728 158.98 307.211 158.98 305.258C158.98 303.253 159.801 301.645 161.441 300.434C163.082 299.21 165.361 298.598 168.277 298.598H172.047V296.527C172.047 295.251 171.656 294.262 170.875 293.559C170.107 292.855 169.02 292.504 167.613 292.504C166.728 292.504 165.96 292.615 165.309 292.836C164.658 293.044 164.065 293.337 163.531 293.715L163.121 296.664H160.152V291.82C161.103 291.052 162.21 290.473 163.473 290.082C164.736 289.678 166.135 289.477 167.672 289.477C170.237 289.477 172.249 290.089 173.707 291.312C175.165 292.536 175.895 294.288 175.895 296.566V306.742C175.895 307.016 175.895 307.283 175.895 307.543C175.908 307.803 175.927 308.064 175.953 308.324L178.004 308.539V311H172.477C172.359 310.427 172.268 309.913 172.203 309.457C172.138 309.001 172.092 308.546 172.066 308.09C171.324 309.04 170.393 309.835 169.273 310.473C168.167 311.098 166.982 311.41 165.719 311.41ZM166.285 308.188C167.561 308.188 168.727 307.882 169.781 307.27C170.836 306.658 171.591 305.922 172.047 305.062V301.234H168.141C166.37 301.234 165.042 301.658 164.156 302.504C163.271 303.35 162.828 304.294 162.828 305.336C162.828 306.26 163.115 306.97 163.688 307.465C164.26 307.947 165.126 308.188 166.285 308.188ZM180.992 311V308.539L184.176 307.992V292.895L180.992 292.348V289.867H187.633L187.887 292.621C188.564 291.618 189.436 290.844 190.504 290.297C191.572 289.75 192.809 289.477 194.215 289.477C195.621 289.477 196.826 289.802 197.828 290.453C198.844 291.104 199.605 292.081 200.113 293.383C200.777 292.185 201.656 291.234 202.75 290.531C203.844 289.828 205.12 289.477 206.578 289.477C208.74 289.477 210.445 290.219 211.695 291.703C212.945 293.174 213.57 295.395 213.57 298.363V307.992L216.754 308.539V311H206.52V308.539L209.703 307.992V298.324C209.703 296.241 209.345 294.77 208.629 293.91C207.913 293.038 206.852 292.602 205.445 292.602C204.104 292.602 203.023 293.077 202.203 294.027C201.396 294.965 200.927 296.15 200.797 297.582V307.992L203.98 308.539V311H193.766V308.539L196.949 307.992V298.324C196.949 296.345 196.578 294.9 195.836 293.988C195.107 293.064 194.046 292.602 192.652 292.602C191.48 292.602 190.517 292.842 189.762 293.324C189.007 293.806 188.427 294.483 188.023 295.355V307.992L191.207 308.539V311H180.992ZM228.863 311.41C226.91 311.41 225.224 310.954 223.805 310.043C222.398 309.118 221.311 307.849 220.543 306.234C219.775 304.607 219.391 302.751 219.391 300.668V300.238C219.391 298.155 219.775 296.306 220.543 294.691C221.311 293.064 222.398 291.788 223.805 290.863C225.224 289.939 226.897 289.477 228.824 289.477C230.777 289.477 232.457 289.939 233.863 290.863C235.283 291.788 236.376 293.057 237.145 294.672C237.913 296.286 238.297 298.142 238.297 300.238V300.668C238.297 302.764 237.913 304.626 237.145 306.254C236.376 307.868 235.289 309.132 233.883 310.043C232.477 310.954 230.803 311.41 228.863 311.41ZM228.863 308.402C230.087 308.402 231.109 308.07 231.93 307.406C232.763 306.729 233.388 305.811 233.805 304.652C234.234 303.48 234.449 302.152 234.449 300.668V300.238C234.449 298.754 234.234 297.432 233.805 296.273C233.388 295.102 232.763 294.184 231.93 293.52C231.096 292.842 230.061 292.504 228.824 292.504C227.6 292.504 226.572 292.842 225.738 293.52C224.905 294.184 224.28 295.102 223.863 296.273C223.447 297.432 223.238 298.754 223.238 300.238V300.668C223.238 302.152 223.447 303.48 223.863 304.652C224.28 305.811 224.905 306.729 225.738 307.406C226.585 308.07 227.626 308.402 228.863 308.402ZM249.82 311.41C248.401 311.41 247.073 311.267 245.836 310.98C244.599 310.694 243.284 310.251 241.891 309.652L241.852 304.633H244.762L245.484 307.66C246.214 307.96 246.917 308.181 247.594 308.324C248.284 308.454 249.026 308.52 249.82 308.52C251.383 308.52 252.503 308.22 253.18 307.621C253.857 307.022 254.195 306.28 254.195 305.395C254.195 304.561 253.85 303.858 253.16 303.285C252.483 302.699 251.246 302.204 249.449 301.801C246.897 301.215 245.016 300.434 243.805 299.457C242.607 298.467 242.008 297.152 242.008 295.512C242.008 294.366 242.34 293.344 243.004 292.445C243.668 291.534 244.592 290.811 245.777 290.277C246.962 289.743 248.342 289.477 249.918 289.477C251.52 289.477 252.887 289.659 254.02 290.023C255.165 290.388 256.161 290.876 257.008 291.488L257.203 296.312H254.312L253.688 293.5C253.232 293.161 252.691 292.901 252.066 292.719C251.441 292.536 250.725 292.445 249.918 292.445C248.72 292.445 247.743 292.725 246.988 293.285C246.246 293.845 245.875 294.548 245.875 295.395C245.875 295.889 245.979 296.319 246.188 296.684C246.409 297.048 246.826 297.38 247.438 297.68C248.049 297.966 248.948 298.253 250.133 298.539C253.076 299.229 255.126 300.108 256.285 301.176C257.457 302.243 258.043 303.559 258.043 305.121C258.043 306.905 257.379 308.402 256.051 309.613C254.736 310.811 252.659 311.41 249.82 311.41ZM278.648 311.332C277.086 311.332 275.842 310.876 274.918 309.965C274.007 309.04 273.551 307.569 273.551 305.551V292.719H270.211V289.867H273.551V284.77H277.398V289.867H281.988V292.719H277.398V305.551C277.398 306.566 277.6 307.315 278.004 307.797C278.408 308.279 278.948 308.52 279.625 308.52C280.081 308.52 280.589 308.48 281.148 308.402C281.708 308.311 282.145 308.233 282.457 308.168L282.984 310.688C282.424 310.857 281.734 311.007 280.914 311.137C280.107 311.267 279.352 311.332 278.648 311.332ZM294.605 311.41C292.652 311.41 290.966 310.954 289.547 310.043C288.141 309.118 287.053 307.849 286.285 306.234C285.517 304.607 285.133 302.751 285.133 300.668V300.238C285.133 298.155 285.517 296.306 286.285 294.691C287.053 293.064 288.141 291.788 289.547 290.863C290.966 289.939 292.639 289.477 294.566 289.477C296.52 289.477 298.199 289.939 299.605 290.863C301.025 291.788 302.118 293.057 302.887 294.672C303.655 296.286 304.039 298.142 304.039 300.238V300.668C304.039 302.764 303.655 304.626 302.887 306.254C302.118 307.868 301.031 309.132 299.625 310.043C298.219 310.954 296.546 311.41 294.605 311.41ZM294.605 308.402C295.829 308.402 296.852 308.07 297.672 307.406C298.505 306.729 299.13 305.811 299.547 304.652C299.977 303.48 300.191 302.152 300.191 300.668V300.238C300.191 298.754 299.977 297.432 299.547 296.273C299.13 295.102 298.505 294.184 297.672 293.52C296.839 292.842 295.803 292.504 294.566 292.504C293.342 292.504 292.314 292.842 291.48 293.52C290.647 294.184 290.022 295.102 289.605 296.273C289.189 297.432 288.98 298.754 288.98 300.238V300.668C288.98 302.152 289.189 303.48 289.605 304.652C290.022 305.811 290.647 306.729 291.48 307.406C292.327 308.07 293.368 308.402 294.605 308.402ZM316.012 311.41C314.293 311.41 312.815 310.987 311.578 310.141C310.354 309.281 309.417 308.09 308.766 306.566C308.115 305.043 307.789 303.266 307.789 301.234V300.824C307.789 298.559 308.115 296.573 308.766 294.867C309.417 293.161 310.361 291.84 311.598 290.902C312.835 289.952 314.319 289.477 316.051 289.477C317.301 289.477 318.401 289.711 319.352 290.18C320.315 290.635 321.135 291.299 321.812 292.172V283.559L318.629 283.012V280.531H321.812H325.66V307.992L328.844 308.539V311H322.32L322.008 308.48C321.318 309.444 320.471 310.173 319.469 310.668C318.479 311.163 317.327 311.41 316.012 311.41ZM316.988 308.285C318.134 308.285 319.098 308.025 319.879 307.504C320.66 306.983 321.305 306.247 321.812 305.297V295.492C321.318 294.607 320.673 293.904 319.879 293.383C319.085 292.862 318.134 292.602 317.027 292.602C315.803 292.602 314.794 292.953 314 293.656C313.206 294.346 312.613 295.31 312.223 296.547C311.832 297.771 311.637 299.197 311.637 300.824V301.234C311.637 303.357 312.073 305.062 312.945 306.352C313.818 307.641 315.165 308.285 316.988 308.285ZM338.336 311.41C336.135 311.41 334.462 310.876 333.316 309.809C332.171 308.728 331.598 307.211 331.598 305.258C331.598 303.253 332.418 301.645 334.059 300.434C335.699 299.21 337.978 298.598 340.895 298.598H344.664V296.527C344.664 295.251 344.273 294.262 343.492 293.559C342.724 292.855 341.637 292.504 340.23 292.504C339.345 292.504 338.577 292.615 337.926 292.836C337.275 293.044 336.682 293.337 336.148 293.715L335.738 296.664H332.77V291.82C333.72 291.052 334.827 290.473 336.09 290.082C337.353 289.678 338.753 289.477 340.289 289.477C342.854 289.477 344.866 290.089 346.324 291.312C347.783 292.536 348.512 294.288 348.512 296.566V306.742C348.512 307.016 348.512 307.283 348.512 307.543C348.525 307.803 348.544 308.064 348.57 308.324L350.621 308.539V311H345.094C344.977 310.427 344.885 309.913 344.82 309.457C344.755 309.001 344.71 308.546 344.684 308.09C343.941 309.04 343.01 309.835 341.891 310.473C340.784 311.098 339.599 311.41 338.336 311.41ZM338.902 308.188C340.178 308.188 341.344 307.882 342.398 307.27C343.453 306.658 344.208 305.922 344.664 305.062V301.234H340.758C338.987 301.234 337.659 301.658 336.773 302.504C335.888 303.35 335.445 304.294 335.445 305.336C335.445 306.26 335.732 306.97 336.305 307.465C336.878 307.947 337.743 308.188 338.902 308.188ZM362.164 311.41C360.745 311.41 359.417 311.267 358.18 310.98C356.943 310.694 355.628 310.251 354.234 309.652L354.195 304.633H357.105L357.828 307.66C358.557 307.96 359.26 308.181 359.938 308.324C360.628 308.454 361.37 308.52 362.164 308.52C363.727 308.52 364.846 308.22 365.523 307.621C366.201 307.022 366.539 306.28 366.539 305.395C366.539 304.561 366.194 303.858 365.504 303.285C364.827 302.699 363.59 302.204 361.793 301.801C359.241 301.215 357.359 300.434 356.148 299.457C354.951 298.467 354.352 297.152 354.352 295.512C354.352 294.366 354.684 293.344 355.348 292.445C356.012 291.534 356.936 290.811 358.121 290.277C359.306 289.743 360.686 289.477 362.262 289.477C363.863 289.477 365.23 289.659 366.363 290.023C367.509 290.388 368.505 290.876 369.352 291.488L369.547 296.312H366.656L366.031 293.5C365.576 293.161 365.035 292.901 364.41 292.719C363.785 292.536 363.069 292.445 362.262 292.445C361.064 292.445 360.087 292.725 359.332 293.285C358.59 293.845 358.219 294.548 358.219 295.395C358.219 295.889 358.323 296.319 358.531 296.684C358.753 297.048 359.169 297.38 359.781 297.68C360.393 297.966 361.292 298.253 362.477 298.539C365.419 299.229 367.47 300.108 368.629 301.176C369.801 302.243 370.387 303.559 370.387 305.121C370.387 306.905 369.723 308.402 368.395 309.613C367.079 310.811 365.003 311.41 362.164 311.41ZM390.367 311.41C388.167 311.41 386.493 310.876 385.348 309.809C384.202 308.728 383.629 307.211 383.629 305.258C383.629 303.253 384.449 301.645 386.09 300.434C387.73 299.21 390.009 298.598 392.926 298.598H396.695V296.527C396.695 295.251 396.305 294.262 395.523 293.559C394.755 292.855 393.668 292.504 392.262 292.504C391.376 292.504 390.608 292.615 389.957 292.836C389.306 293.044 388.714 293.337 388.18 293.715L387.77 296.664H384.801V291.82C385.751 291.052 386.858 290.473 388.121 290.082C389.384 289.678 390.784 289.477 392.32 289.477C394.885 289.477 396.897 290.089 398.355 291.312C399.814 292.536 400.543 294.288 400.543 296.566V306.742C400.543 307.016 400.543 307.283 400.543 307.543C400.556 307.803 400.576 308.064 400.602 308.324L402.652 308.539V311H397.125C397.008 310.427 396.917 309.913 396.852 309.457C396.786 309.001 396.741 308.546 396.715 308.09C395.973 309.04 395.042 309.835 393.922 310.473C392.815 311.098 391.63 311.41 390.367 311.41ZM390.934 308.188C392.21 308.188 393.375 307.882 394.43 307.27C395.484 306.658 396.24 305.922 396.695 305.062V301.234H392.789C391.018 301.234 389.69 301.658 388.805 302.504C387.919 303.35 387.477 304.294 387.477 305.336C387.477 306.26 387.763 306.97 388.336 307.465C388.909 307.947 389.775 308.188 390.934 308.188ZM414.195 311.41C412.776 311.41 411.448 311.267 410.211 310.98C408.974 310.694 407.659 310.251 406.266 309.652L406.227 304.633H409.137L409.859 307.66C410.589 307.96 411.292 308.181 411.969 308.324C412.659 308.454 413.401 308.52 414.195 308.52C415.758 308.52 416.878 308.22 417.555 307.621C418.232 307.022 418.57 306.28 418.57 305.395C418.57 304.561 418.225 303.858 417.535 303.285C416.858 302.699 415.621 302.204 413.824 301.801C411.272 301.215 409.391 300.434 408.18 299.457C406.982 298.467 406.383 297.152 406.383 295.512C406.383 294.366 406.715 293.344 407.379 292.445C408.043 291.534 408.967 290.811 410.152 290.277C411.337 289.743 412.717 289.477 414.293 289.477C415.895 289.477 417.262 289.659 418.395 290.023C419.54 290.388 420.536 290.876 421.383 291.488L421.578 296.312H418.688L418.062 293.5C417.607 293.161 417.066 292.901 416.441 292.719C415.816 292.536 415.1 292.445 414.293 292.445C413.095 292.445 412.118 292.725 411.363 293.285C410.621 293.845 410.25 294.548 410.25 295.395C410.25 295.889 410.354 296.319 410.562 296.684C410.784 297.048 411.201 297.38 411.812 297.68C412.424 297.966 413.323 298.253 414.508 298.539C417.451 299.229 419.501 300.108 420.66 301.176C421.832 302.243 422.418 303.559 422.418 305.121C422.418 306.905 421.754 308.402 420.426 309.613C419.111 310.811 417.034 311.41 414.195 311.41ZM60.3672 364V361.539L63.5508 360.992V345.719H60.25V342.867H63.5508V340.191C63.5508 337.939 64.1367 336.201 65.3086 334.977C66.4935 333.74 68.1406 333.121 70.25 333.121C70.6927 333.121 71.168 333.16 71.6758 333.238C72.1966 333.303 72.7305 333.401 73.2773 333.531L72.8086 336.461C72.5742 336.409 72.2552 336.363 71.8516 336.324C71.4609 336.285 71.0898 336.266 70.7383 336.266C69.6055 336.266 68.7656 336.604 68.2188 337.281C67.6719 337.945 67.3984 338.915 67.3984 340.191V342.867H72.0078V345.719H67.3984V360.992L71.0312 361.539V364H60.3672ZM83.9805 364.41C82.0273 364.41 80.3411 363.954 78.9219 363.043C77.5156 362.118 76.4284 360.849 75.6602 359.234C74.8919 357.607 74.5078 355.751 74.5078 353.668V353.238C74.5078 351.155 74.8919 349.306 75.6602 347.691C76.4284 346.064 77.5156 344.788 78.9219 343.863C80.3411 342.939 82.0143 342.477 83.9414 342.477C85.8945 342.477 87.5742 342.939 88.9805 343.863C90.3997 344.788 91.4935 346.057 92.2617 347.672C93.0299 349.286 93.4141 351.142 93.4141 353.238V353.668C93.4141 355.764 93.0299 357.626 92.2617 359.254C91.4935 360.868 90.4062 362.132 89 363.043C87.5938 363.954 85.9206 364.41 83.9805 364.41ZM83.9805 361.402C85.2044 361.402 86.2266 361.07 87.0469 360.406C87.8802 359.729 88.5052 358.811 88.9219 357.652C89.3516 356.48 89.5664 355.152 89.5664 353.668V353.238C89.5664 351.754 89.3516 350.432 88.9219 349.273C88.5052 348.102 87.8802 347.184 87.0469 346.52C86.2135 345.842 85.1784 345.504 83.9414 345.504C82.7174 345.504 81.6888 345.842 80.8555 346.52C80.0221 347.184 79.3971 348.102 78.9805 349.273C78.5638 350.432 78.3555 351.754 78.3555 353.238V353.668C78.3555 355.152 78.5638 356.48 78.9805 357.652C79.3971 358.811 80.0221 359.729 80.8555 360.406C81.7018 361.07 82.7435 361.402 83.9805 361.402ZM96.3438 364V361.539L99.5273 360.992V345.895L96.3438 345.348V342.867H102.965L103.297 345.562L103.336 345.934C103.935 344.853 104.671 344.007 105.543 343.395C106.428 342.783 107.438 342.477 108.57 342.477C108.974 342.477 109.384 342.516 109.801 342.594C110.23 342.659 110.536 342.724 110.719 342.789L110.211 346.363L107.535 346.207C106.52 346.142 105.667 346.376 104.977 346.91C104.286 347.431 103.753 348.134 103.375 349.02V360.992L106.559 361.539V364H96.3438ZM113.062 364V361.539L116.246 360.992V345.895L113.062 345.348V342.867H119.703L119.957 345.621C120.634 344.618 121.507 343.844 122.574 343.297C123.642 342.75 124.879 342.477 126.285 342.477C127.691 342.477 128.896 342.802 129.898 343.453C130.914 344.104 131.676 345.081 132.184 346.383C132.848 345.185 133.727 344.234 134.82 343.531C135.914 342.828 137.19 342.477 138.648 342.477C140.81 342.477 142.516 343.219 143.766 344.703C145.016 346.174 145.641 348.395 145.641 351.363V360.992L148.824 361.539V364H138.59V361.539L141.773 360.992V351.324C141.773 349.241 141.415 347.77 140.699 346.91C139.983 346.038 138.922 345.602 137.516 345.602C136.174 345.602 135.094 346.077 134.273 347.027C133.466 347.965 132.997 349.15 132.867 350.582V360.992L136.051 361.539V364H125.836V361.539L129.02 360.992V351.324C129.02 349.345 128.648 347.9 127.906 346.988C127.177 346.064 126.116 345.602 124.723 345.602C123.551 345.602 122.587 345.842 121.832 346.324C121.077 346.806 120.497 347.483 120.094 348.355V360.992L123.277 361.539V364H113.062ZM158.531 364.41C156.331 364.41 154.658 363.876 153.512 362.809C152.366 361.728 151.793 360.211 151.793 358.258C151.793 356.253 152.613 354.645 154.254 353.434C155.895 352.21 158.173 351.598 161.09 351.598H164.859V349.527C164.859 348.251 164.469 347.262 163.688 346.559C162.919 345.855 161.832 345.504 160.426 345.504C159.54 345.504 158.772 345.615 158.121 345.836C157.47 346.044 156.878 346.337 156.344 346.715L155.934 349.664H152.965V344.82C153.915 344.052 155.022 343.473 156.285 343.082C157.548 342.678 158.948 342.477 160.484 342.477C163.049 342.477 165.061 343.089 166.52 344.312C167.978 345.536 168.707 347.288 168.707 349.566V359.742C168.707 360.016 168.707 360.283 168.707 360.543C168.72 360.803 168.74 361.064 168.766 361.324L170.816 361.539V364H165.289C165.172 363.427 165.081 362.913 165.016 362.457C164.951 362.001 164.905 361.546 164.879 361.09C164.137 362.04 163.206 362.835 162.086 363.473C160.979 364.098 159.794 364.41 158.531 364.41ZM159.098 361.188C160.374 361.188 161.539 360.882 162.594 360.27C163.648 359.658 164.404 358.922 164.859 358.062V354.234H160.953C159.182 354.234 157.854 354.658 156.969 355.504C156.083 356.35 155.641 357.294 155.641 358.336C155.641 359.26 155.927 359.97 156.5 360.465C157.073 360.947 157.939 361.188 159.098 361.188ZM182.359 364.41C180.94 364.41 179.612 364.267 178.375 363.98C177.138 363.694 175.823 363.251 174.43 362.652L174.391 357.633H177.301L178.023 360.66C178.753 360.96 179.456 361.181 180.133 361.324C180.823 361.454 181.565 361.52 182.359 361.52C183.922 361.52 185.042 361.22 185.719 360.621C186.396 360.022 186.734 359.28 186.734 358.395C186.734 357.561 186.389 356.858 185.699 356.285C185.022 355.699 183.785 355.204 181.988 354.801C179.436 354.215 177.555 353.434 176.344 352.457C175.146 351.467 174.547 350.152 174.547 348.512C174.547 347.366 174.879 346.344 175.543 345.445C176.207 344.534 177.132 343.811 178.316 343.277C179.501 342.743 180.882 342.477 182.457 342.477C184.059 342.477 185.426 342.659 186.559 343.023C187.704 343.388 188.701 343.876 189.547 344.488L189.742 349.312H186.852L186.227 346.5C185.771 346.161 185.23 345.901 184.605 345.719C183.98 345.536 183.264 345.445 182.457 345.445C181.259 345.445 180.283 345.725 179.527 346.285C178.785 346.845 178.414 347.548 178.414 348.395C178.414 348.889 178.518 349.319 178.727 349.684C178.948 350.048 179.365 350.38 179.977 350.68C180.589 350.966 181.487 351.253 182.672 351.539C185.615 352.229 187.665 353.108 188.824 354.176C189.996 355.243 190.582 356.559 190.582 358.121C190.582 359.905 189.918 361.402 188.59 362.613C187.275 363.811 185.198 364.41 182.359 364.41ZM212.027 364.41C210.309 364.41 208.831 363.987 207.594 363.141C206.37 362.281 205.432 361.09 204.781 359.566C204.13 358.043 203.805 356.266 203.805 354.234V353.824C203.805 351.559 204.13 349.573 204.781 347.867C205.432 346.161 206.376 344.84 207.613 343.902C208.85 342.952 210.335 342.477 212.066 342.477C213.316 342.477 214.417 342.711 215.367 343.18C216.331 343.635 217.151 344.299 217.828 345.172V336.559L214.645 336.012V333.531H217.828H221.676V360.992L224.859 361.539V364H218.336L218.023 361.48C217.333 362.444 216.487 363.173 215.484 363.668C214.495 364.163 213.342 364.41 212.027 364.41ZM213.004 361.285C214.15 361.285 215.113 361.025 215.895 360.504C216.676 359.983 217.32 359.247 217.828 358.297V348.492C217.333 347.607 216.689 346.904 215.895 346.383C215.1 345.862 214.15 345.602 213.043 345.602C211.819 345.602 210.81 345.953 210.016 346.656C209.221 347.346 208.629 348.31 208.238 349.547C207.848 350.771 207.652 352.197 207.652 353.824V354.234C207.652 356.357 208.089 358.062 208.961 359.352C209.833 360.641 211.181 361.285 213.004 361.285ZM237.027 364.41C235.074 364.41 233.375 363.967 231.93 363.082C230.484 362.184 229.365 360.94 228.57 359.352C227.789 357.763 227.398 355.927 227.398 353.844V352.984C227.398 350.979 227.809 349.189 228.629 347.613C229.462 346.025 230.562 344.775 231.93 343.863C233.31 342.939 234.814 342.477 236.441 342.477C238.342 342.477 239.931 342.867 241.207 343.648C242.496 344.43 243.466 345.53 244.117 346.949C244.768 348.355 245.094 350.016 245.094 351.93V354.332H231.383L231.324 354.43C231.35 355.784 231.585 356.988 232.027 358.043C232.483 359.085 233.134 359.905 233.98 360.504C234.827 361.103 235.842 361.402 237.027 361.402C238.329 361.402 239.469 361.22 240.445 360.855C241.435 360.478 242.288 359.964 243.004 359.312L244.508 361.812C243.753 362.542 242.75 363.16 241.5 363.668C240.263 364.163 238.772 364.41 237.027 364.41ZM231.5 351.324H241.246V350.816C241.246 349.801 241.064 348.896 240.699 348.102C240.348 347.294 239.814 346.663 239.098 346.207C238.395 345.738 237.509 345.504 236.441 345.504C235.582 345.504 234.801 345.758 234.098 346.266C233.395 346.76 232.815 347.438 232.359 348.297C231.904 349.156 231.604 350.133 231.461 351.227L231.5 351.324ZM257.477 372.125V369.645L260.465 369.098V345.895L257.281 345.348V342.867H263.766L264.117 345.445C264.82 344.482 265.673 343.746 266.676 343.238C267.691 342.73 268.863 342.477 270.191 342.477C271.936 342.477 273.427 342.952 274.664 343.902C275.901 344.84 276.845 346.161 277.496 347.867C278.147 349.56 278.473 351.546 278.473 353.824V354.234C278.473 356.266 278.141 358.043 277.477 359.566C276.826 361.09 275.888 362.281 274.664 363.141C273.44 363.987 271.969 364.41 270.25 364.41C268.948 364.41 267.802 364.195 266.812 363.766C265.836 363.323 265.003 362.672 264.312 361.812V369.098L267.672 369.645V372.125H257.477ZM269.059 361.402C270.882 361.402 272.262 360.738 273.199 359.41C274.137 358.082 274.605 356.357 274.605 354.234V353.824C274.605 352.21 274.397 350.79 273.98 349.566C273.564 348.329 272.939 347.359 272.105 346.656C271.285 345.953 270.257 345.602 269.02 345.602C267.926 345.602 266.988 345.849 266.207 346.344C265.426 346.839 264.794 347.516 264.312 348.375V358.668C264.794 359.54 265.419 360.217 266.188 360.699C266.969 361.168 267.926 361.402 269.059 361.402ZM288.297 364.41C286.096 364.41 284.423 363.876 283.277 362.809C282.132 361.728 281.559 360.211 281.559 358.258C281.559 356.253 282.379 354.645 284.02 353.434C285.66 352.21 287.939 351.598 290.855 351.598H294.625V349.527C294.625 348.251 294.234 347.262 293.453 346.559C292.685 345.855 291.598 345.504 290.191 345.504C289.306 345.504 288.538 345.615 287.887 345.836C287.236 346.044 286.643 346.337 286.109 346.715L285.699 349.664H282.73V344.82C283.681 344.052 284.788 343.473 286.051 343.082C287.314 342.678 288.714 342.477 290.25 342.477C292.815 342.477 294.827 343.089 296.285 344.312C297.743 345.536 298.473 347.288 298.473 349.566V359.742C298.473 360.016 298.473 360.283 298.473 360.543C298.486 360.803 298.505 361.064 298.531 361.324L300.582 361.539V364H295.055C294.938 363.427 294.846 362.913 294.781 362.457C294.716 362.001 294.671 361.546 294.645 361.09C293.902 362.04 292.971 362.835 291.852 363.473C290.745 364.098 289.56 364.41 288.297 364.41ZM288.863 361.188C290.139 361.188 291.305 360.882 292.359 360.27C293.414 359.658 294.169 358.922 294.625 358.062V354.234H290.719C288.948 354.234 287.62 354.658 286.734 355.504C285.849 356.35 285.406 357.294 285.406 358.336C285.406 359.26 285.693 359.97 286.266 360.465C286.839 360.947 287.704 361.188 288.863 361.188ZM312.848 372.535C311.832 372.535 310.732 372.392 309.547 372.105C308.362 371.832 307.32 371.454 306.422 370.973L307.418 367.984C308.134 368.362 308.98 368.674 309.957 368.922C310.934 369.169 311.884 369.293 312.809 369.293C314.527 369.293 315.784 368.811 316.578 367.848C317.385 366.884 317.789 365.51 317.789 363.727V361.715C317.099 362.6 316.272 363.271 315.309 363.727C314.345 364.182 313.238 364.41 311.988 364.41C310.27 364.41 308.785 363.987 307.535 363.141C306.285 362.281 305.322 361.09 304.645 359.566C303.98 358.03 303.648 356.253 303.648 354.234V353.824C303.648 351.559 303.98 349.573 304.645 347.867C305.322 346.161 306.285 344.84 307.535 343.902C308.785 342.952 310.283 342.477 312.027 342.477C313.355 342.477 314.521 342.737 315.523 343.258C316.526 343.779 317.366 344.534 318.043 345.523L318.395 342.867H321.637V363.727C321.637 365.549 321.292 367.118 320.602 368.434C319.924 369.749 318.928 370.758 317.613 371.461C316.311 372.177 314.723 372.535 312.848 372.535ZM312.945 361.285C314.104 361.285 315.074 361.025 315.855 360.504C316.637 359.97 317.281 359.221 317.789 358.258V348.531C317.294 347.633 316.65 346.923 315.855 346.402C315.061 345.868 314.104 345.602 312.984 345.602C311.76 345.602 310.738 345.953 309.918 346.656C309.111 347.359 308.505 348.329 308.102 349.566C307.698 350.79 307.496 352.21 307.496 353.824V354.234C307.496 356.357 307.945 358.062 308.844 359.352C309.742 360.641 311.109 361.285 312.945 361.285ZM321.051 346.012L319.547 342.867H324.254V345.328L321.051 346.012ZM333.023 364.41C330.823 364.41 329.15 363.876 328.004 362.809C326.858 361.728 326.285 360.211 326.285 358.258C326.285 356.253 327.105 354.645 328.746 353.434C330.387 352.21 332.665 351.598 335.582 351.598H339.352V349.527C339.352 348.251 338.961 347.262 338.18 346.559C337.411 345.855 336.324 345.504 334.918 345.504C334.033 345.504 333.264 345.615 332.613 345.836C331.962 346.044 331.37 346.337 330.836 346.715L330.426 349.664H327.457V344.82C328.408 344.052 329.514 343.473 330.777 343.082C332.04 342.678 333.44 342.477 334.977 342.477C337.542 342.477 339.553 343.089 341.012 344.312C342.47 345.536 343.199 347.288 343.199 349.566V359.742C343.199 360.016 343.199 360.283 343.199 360.543C343.212 360.803 343.232 361.064 343.258 361.324L345.309 361.539V364H339.781C339.664 363.427 339.573 362.913 339.508 362.457C339.443 362.001 339.397 361.546 339.371 361.09C338.629 362.04 337.698 362.835 336.578 363.473C335.471 364.098 334.286 364.41 333.023 364.41ZM333.59 361.188C334.866 361.188 336.031 360.882 337.086 360.27C338.141 359.658 338.896 358.922 339.352 358.062V354.234H335.445C333.674 354.234 332.346 354.658 331.461 355.504C330.576 356.35 330.133 357.294 330.133 358.336C330.133 359.26 330.419 359.97 330.992 360.465C331.565 360.947 332.431 361.188 333.59 361.188ZM348.297 364V361.539L351.48 360.992V345.895L348.297 345.348V342.867H354.938L355.191 345.621C355.868 344.618 356.741 343.844 357.809 343.297C358.876 342.75 360.113 342.477 361.52 342.477C362.926 342.477 364.13 342.802 365.133 343.453C366.148 344.104 366.91 345.081 367.418 346.383C368.082 345.185 368.961 344.234 370.055 343.531C371.148 342.828 372.424 342.477 373.883 342.477C376.044 342.477 377.75 343.219 379 344.703C380.25 346.174 380.875 348.395 380.875 351.363V360.992L384.059 361.539V364H373.824V361.539L377.008 360.992V351.324C377.008 349.241 376.65 347.77 375.934 346.91C375.217 346.038 374.156 345.602 372.75 345.602C371.409 345.602 370.328 346.077 369.508 347.027C368.701 347.965 368.232 349.15 368.102 350.582V360.992L371.285 361.539V364H361.07V361.539L364.254 360.992V351.324C364.254 349.345 363.883 347.9 363.141 346.988C362.411 346.064 361.35 345.602 359.957 345.602C358.785 345.602 357.822 345.842 357.066 346.324C356.311 346.806 355.732 347.483 355.328 348.355V360.992L358.512 361.539V364H348.297ZM396.246 364.41C394.293 364.41 392.594 363.967 391.148 363.082C389.703 362.184 388.583 360.94 387.789 359.352C387.008 357.763 386.617 355.927 386.617 353.844V352.984C386.617 350.979 387.027 349.189 387.848 347.613C388.681 346.025 389.781 344.775 391.148 343.863C392.529 342.939 394.033 342.477 395.66 342.477C397.561 342.477 399.15 342.867 400.426 343.648C401.715 344.43 402.685 345.53 403.336 346.949C403.987 348.355 404.312 350.016 404.312 351.93V354.332H390.602L390.543 354.43C390.569 355.784 390.803 356.988 391.246 358.043C391.702 359.085 392.353 359.905 393.199 360.504C394.046 361.103 395.061 361.402 396.246 361.402C397.548 361.402 398.688 361.22 399.664 360.855C400.654 360.478 401.507 359.964 402.223 359.312L403.727 361.812C402.971 362.542 401.969 363.16 400.719 363.668C399.482 364.163 397.991 364.41 396.246 364.41ZM390.719 351.324H400.465V350.816C400.465 349.801 400.283 348.896 399.918 348.102C399.566 347.294 399.033 346.663 398.316 346.207C397.613 345.738 396.728 345.504 395.66 345.504C394.801 345.504 394.02 345.758 393.316 346.266C392.613 346.76 392.034 347.438 391.578 348.297C391.122 349.156 390.823 350.133 390.68 351.227L390.719 351.324ZM407.32 364V361.539L410.504 360.992V345.895L407.32 345.348V342.867H413.941L414.215 346.012C414.918 344.892 415.797 344.026 416.852 343.414C417.919 342.789 419.13 342.477 420.484 342.477C422.763 342.477 424.527 343.147 425.777 344.488C427.027 345.816 427.652 347.874 427.652 350.66V360.992L430.836 361.539V364H420.621V361.539L423.805 360.992V350.738C423.805 348.876 423.434 347.555 422.691 346.773C421.962 345.992 420.842 345.602 419.332 345.602C418.225 345.602 417.242 345.868 416.383 346.402C415.536 346.936 414.859 347.665 414.352 348.59V360.992L417.535 361.539V364H407.32ZM440.25 364.332C438.688 364.332 437.444 363.876 436.52 362.965C435.608 362.04 435.152 360.569 435.152 358.551V345.719H431.812V342.867H435.152V337.77H439V342.867H443.59V345.719H439V358.551C439 359.566 439.202 360.315 439.605 360.797C440.009 361.279 440.549 361.52 441.227 361.52C441.682 361.52 442.19 361.48 442.75 361.402C443.31 361.311 443.746 361.233 444.059 361.168L444.586 363.688C444.026 363.857 443.336 364.007 442.516 364.137C441.708 364.267 440.953 364.332 440.25 364.332ZM456.207 364.41C454.254 364.41 452.568 363.954 451.148 363.043C449.742 362.118 448.655 360.849 447.887 359.234C447.118 357.607 446.734 355.751 446.734 353.668V353.238C446.734 351.155 447.118 349.306 447.887 347.691C448.655 346.064 449.742 344.788 451.148 343.863C452.568 342.939 454.241 342.477 456.168 342.477C458.121 342.477 459.801 342.939 461.207 343.863C462.626 344.788 463.72 346.057 464.488 347.672C465.257 349.286 465.641 351.142 465.641 353.238V353.668C465.641 355.764 465.257 357.626 464.488 359.254C463.72 360.868 462.633 362.132 461.227 363.043C459.82 363.954 458.147 364.41 456.207 364.41ZM456.207 361.402C457.431 361.402 458.453 361.07 459.273 360.406C460.107 359.729 460.732 358.811 461.148 357.652C461.578 356.48 461.793 355.152 461.793 353.668V353.238C461.793 351.754 461.578 350.432 461.148 349.273C460.732 348.102 460.107 347.184 459.273 346.52C458.44 345.842 457.405 345.504 456.168 345.504C454.944 345.504 453.915 345.842 453.082 346.52C452.249 347.184 451.624 348.102 451.207 349.273C450.79 350.432 450.582 351.754 450.582 353.238V353.668C450.582 355.152 450.79 356.48 451.207 357.652C451.624 358.811 452.249 359.729 453.082 360.406C453.928 361.07 454.97 361.402 456.207 361.402ZM470.016 346.812V342.867H473.863V346.812H470.016ZM470.367 370.074L468.199 368.629C468.811 367.691 469.273 366.734 469.586 365.758C469.898 364.781 470.055 363.746 470.055 362.652V359.684H473.902V362.594C473.902 363.87 473.583 365.204 472.945 366.598C472.307 367.991 471.448 369.15 470.367 370.074Z" fill="white"/>
</g>
<defs>
<filter id="filter0_d_93_98" x="0" y="0" width="528" height="481" filterUnits="userSpaceOnUse" color-interpolation-filters="sRGB">
<feFlood flood-opacity="0" result="BackgroundImageFix"/>
<feColorMatrix in="SourceAlpha" type="matrix" values="0 0 0 0 0 0 0 0 0 0 0 0 0 0 0 0 0 0 127 0" result="hardAlpha"/>
<feOffset dy="4"/>
<feGaussianBlur stdDeviation="2"/>
<feComposite in2="hardAlpha" operator="out"/>
<feColorMatrix type="matrix" values="0 0 0 0 0 0 0 0 0 0 0 0 0 0 0 0 0 0 0.25 0"/>
<feBlend mode="normal" in2="BackgroundImageFix" result="effect1_dropShadow_93_98"/>
<feBlend mode="normal" in="SourceGraphic" in2="effect1_dropShadow_93_98" result="shape"/>
</filter>
</defs>
</svg>
