<svg width="520" height="473" viewBox="0 0 520 473" fill="none" xmlns="http://www.w3.org/2000/svg">
<rect width="520" height="473" rx="42" fill="#E94E1B"/>
<path d="M122.836 302.41C121.104 302.41 119.438 302.156 117.836 301.648C116.234 301.141 114.704 300.359 113.246 299.305V293.23H116.234L116.879 297.703C117.725 298.224 118.643 298.628 119.633 298.914C120.622 299.201 121.69 299.344 122.836 299.344C124.138 299.344 125.238 299.148 126.137 298.758C127.048 298.354 127.745 297.801 128.227 297.098C128.708 296.395 128.949 295.574 128.949 294.637C128.949 293.764 128.741 292.996 128.324 292.332C127.908 291.668 127.217 291.089 126.254 290.594C125.303 290.086 124.001 289.643 122.348 289.266C120.395 288.81 118.741 288.204 117.387 287.449C116.046 286.681 115.023 285.757 114.32 284.676C113.63 283.582 113.285 282.332 113.285 280.926C113.285 279.441 113.676 278.113 114.457 276.941C115.251 275.77 116.352 274.845 117.758 274.168C119.164 273.491 120.805 273.152 122.68 273.152C124.672 273.152 126.43 273.458 127.953 274.07C129.49 274.669 130.753 275.398 131.742 276.258V281.941H128.754L128.109 277.879C127.523 277.41 126.794 277.02 125.922 276.707C125.049 276.395 123.969 276.238 122.68 276.238C121.586 276.238 120.622 276.434 119.789 276.824C118.956 277.202 118.305 277.736 117.836 278.426C117.367 279.116 117.133 279.93 117.133 280.867C117.133 281.688 117.341 282.404 117.758 283.016C118.188 283.628 118.878 284.168 119.828 284.637C120.792 285.092 122.074 285.522 123.676 285.926C126.671 286.668 128.936 287.768 130.473 289.227C132.022 290.672 132.797 292.462 132.797 294.598C132.797 296.121 132.387 297.475 131.566 298.66C130.746 299.832 129.587 300.75 128.09 301.414C126.605 302.078 124.854 302.41 122.836 302.41ZM145.551 302.41C143.598 302.41 141.911 301.954 140.492 301.043C139.086 300.118 137.999 298.849 137.23 297.234C136.462 295.607 136.078 293.751 136.078 291.668V291.238C136.078 289.155 136.462 287.306 137.23 285.691C137.999 284.064 139.086 282.788 140.492 281.863C141.911 280.939 143.585 280.477 145.512 280.477C147.465 280.477 149.145 280.939 150.551 281.863C151.97 282.788 153.064 284.057 153.832 285.672C154.6 287.286 154.984 289.142 154.984 291.238V291.668C154.984 293.764 154.6 295.626 153.832 297.254C153.064 298.868 151.977 300.132 150.57 301.043C149.164 301.954 147.491 302.41 145.551 302.41ZM145.551 299.402C146.775 299.402 147.797 299.07 148.617 298.406C149.451 297.729 150.076 296.811 150.492 295.652C150.922 294.48 151.137 293.152 151.137 291.668V291.238C151.137 289.754 150.922 288.432 150.492 287.273C150.076 286.102 149.451 285.184 148.617 284.52C147.784 283.842 146.749 283.504 145.512 283.504C144.288 283.504 143.259 283.842 142.426 284.52C141.592 285.184 140.967 286.102 140.551 287.273C140.134 288.432 139.926 289.754 139.926 291.238V291.668C139.926 293.152 140.134 294.48 140.551 295.652C140.967 296.811 141.592 297.729 142.426 298.406C143.272 299.07 144.314 299.402 145.551 299.402ZM157.953 302V299.539L161.137 298.992V283.895L157.953 283.348V280.867H164.594L164.848 283.621C165.525 282.618 166.397 281.844 167.465 281.297C168.533 280.75 169.77 280.477 171.176 280.477C172.582 280.477 173.786 280.802 174.789 281.453C175.805 282.104 176.566 283.081 177.074 284.383C177.738 283.185 178.617 282.234 179.711 281.531C180.805 280.828 182.081 280.477 183.539 280.477C185.701 280.477 187.406 281.219 188.656 282.703C189.906 284.174 190.531 286.395 190.531 289.363V298.992L193.715 299.539V302H183.48V299.539L186.664 298.992V289.324C186.664 287.241 186.306 285.77 185.59 284.91C184.874 284.038 183.812 283.602 182.406 283.602C181.065 283.602 179.984 284.077 179.164 285.027C178.357 285.965 177.888 287.15 177.758 288.582V298.992L180.941 299.539V302H170.727V299.539L173.91 298.992V289.324C173.91 287.345 173.539 285.9 172.797 284.988C172.068 284.064 171.007 283.602 169.613 283.602C168.441 283.602 167.478 283.842 166.723 284.324C165.967 284.806 165.388 285.483 164.984 286.355V298.992L168.168 299.539V302H157.953ZM205.824 302.41C203.871 302.41 202.185 301.954 200.766 301.043C199.359 300.118 198.272 298.849 197.504 297.234C196.736 295.607 196.352 293.751 196.352 291.668V291.238C196.352 289.155 196.736 287.306 197.504 285.691C198.272 284.064 199.359 282.788 200.766 281.863C202.185 280.939 203.858 280.477 205.785 280.477C207.738 280.477 209.418 280.939 210.824 281.863C212.243 282.788 213.337 284.057 214.105 285.672C214.874 287.286 215.258 289.142 215.258 291.238V291.668C215.258 293.764 214.874 295.626 214.105 297.254C213.337 298.868 212.25 300.132 210.844 301.043C209.438 301.954 207.764 302.41 205.824 302.41ZM205.824 299.402C207.048 299.402 208.07 299.07 208.891 298.406C209.724 297.729 210.349 296.811 210.766 295.652C211.195 294.48 211.41 293.152 211.41 291.668V291.238C211.41 289.754 211.195 288.432 210.766 287.273C210.349 286.102 209.724 285.184 208.891 284.52C208.057 283.842 207.022 283.504 205.785 283.504C204.561 283.504 203.533 283.842 202.699 284.52C201.866 285.184 201.241 286.102 200.824 287.273C200.408 288.432 200.199 289.754 200.199 291.238V291.668C200.199 293.152 200.408 294.48 200.824 295.652C201.241 296.811 201.866 297.729 202.699 298.406C203.546 299.07 204.587 299.402 205.824 299.402ZM226.781 302.41C225.362 302.41 224.034 302.267 222.797 301.98C221.56 301.694 220.245 301.251 218.852 300.652L218.812 295.633H221.723L222.445 298.66C223.174 298.96 223.878 299.181 224.555 299.324C225.245 299.454 225.987 299.52 226.781 299.52C228.344 299.52 229.464 299.22 230.141 298.621C230.818 298.022 231.156 297.28 231.156 296.395C231.156 295.561 230.811 294.858 230.121 294.285C229.444 293.699 228.207 293.204 226.41 292.801C223.858 292.215 221.977 291.434 220.766 290.457C219.568 289.467 218.969 288.152 218.969 286.512C218.969 285.366 219.301 284.344 219.965 283.445C220.629 282.534 221.553 281.811 222.738 281.277C223.923 280.743 225.303 280.477 226.879 280.477C228.48 280.477 229.848 280.659 230.98 281.023C232.126 281.388 233.122 281.876 233.969 282.488L234.164 287.312H231.273L230.648 284.5C230.193 284.161 229.652 283.901 229.027 283.719C228.402 283.536 227.686 283.445 226.879 283.445C225.681 283.445 224.704 283.725 223.949 284.285C223.207 284.845 222.836 285.548 222.836 286.395C222.836 286.889 222.94 287.319 223.148 287.684C223.37 288.048 223.786 288.38 224.398 288.68C225.01 288.966 225.909 289.253 227.094 289.539C230.036 290.229 232.087 291.108 233.246 292.176C234.418 293.243 235.004 294.559 235.004 296.121C235.004 297.905 234.34 299.402 233.012 300.613C231.697 301.811 229.62 302.41 226.781 302.41ZM257.445 302.41C255.154 302.41 253.363 301.674 252.074 300.203C250.785 298.732 250.141 296.44 250.141 293.328V283.895L247.719 283.348V280.867H250.141H253.988V293.367C253.988 295.62 254.32 297.169 254.984 298.016C255.648 298.862 256.684 299.285 258.09 299.285C259.457 299.285 260.583 299.012 261.469 298.465C262.367 297.905 263.044 297.117 263.5 296.102V283.895L260.668 283.348V280.867H263.5H267.348V298.992L269.77 299.539V302H263.891L263.637 298.875C262.973 300.008 262.113 300.88 261.059 301.492C260.017 302.104 258.812 302.41 257.445 302.41ZM272.484 302V299.539L275.668 298.992V283.895L272.484 283.348V280.867H279.125L279.379 283.621C280.056 282.618 280.928 281.844 281.996 281.297C283.064 280.75 284.301 280.477 285.707 280.477C287.113 280.477 288.318 280.802 289.32 281.453C290.336 282.104 291.098 283.081 291.605 284.383C292.27 283.185 293.148 282.234 294.242 281.531C295.336 280.828 296.612 280.477 298.07 280.477C300.232 280.477 301.938 281.219 303.188 282.703C304.438 284.174 305.062 286.395 305.062 289.363V298.992L308.246 299.539V302H298.012V299.539L301.195 298.992V289.324C301.195 287.241 300.837 285.77 300.121 284.91C299.405 284.038 298.344 283.602 296.938 283.602C295.596 283.602 294.516 284.077 293.695 285.027C292.888 285.965 292.419 287.15 292.289 288.582V298.992L295.473 299.539V302H285.258V299.539L288.441 298.992V289.324C288.441 287.345 288.07 285.9 287.328 284.988C286.599 284.064 285.538 283.602 284.145 283.602C282.973 283.602 282.009 283.842 281.254 284.324C280.499 284.806 279.919 285.483 279.516 286.355V298.992L282.699 299.539V302H272.484ZM317.953 302.41C315.753 302.41 314.079 301.876 312.934 300.809C311.788 299.728 311.215 298.211 311.215 296.258C311.215 294.253 312.035 292.645 313.676 291.434C315.316 290.21 317.595 289.598 320.512 289.598H324.281V287.527C324.281 286.251 323.891 285.262 323.109 284.559C322.341 283.855 321.254 283.504 319.848 283.504C318.962 283.504 318.194 283.615 317.543 283.836C316.892 284.044 316.299 284.337 315.766 284.715L315.355 287.664H312.387V282.82C313.337 282.052 314.444 281.473 315.707 281.082C316.97 280.678 318.37 280.477 319.906 280.477C322.471 280.477 324.483 281.089 325.941 282.312C327.4 283.536 328.129 285.288 328.129 287.566V297.742C328.129 298.016 328.129 298.283 328.129 298.543C328.142 298.803 328.161 299.064 328.188 299.324L330.238 299.539V302H324.711C324.594 301.427 324.503 300.913 324.438 300.457C324.372 300.001 324.327 299.546 324.301 299.09C323.559 300.04 322.628 300.835 321.508 301.473C320.401 302.098 319.216 302.41 317.953 302.41ZM318.52 299.188C319.796 299.188 320.961 298.882 322.016 298.27C323.07 297.658 323.826 296.922 324.281 296.062V292.234H320.375C318.604 292.234 317.276 292.658 316.391 293.504C315.505 294.35 315.062 295.294 315.062 296.336C315.062 297.26 315.349 297.97 315.922 298.465C316.495 298.947 317.361 299.188 318.52 299.188ZM342.992 302V299.539L346.176 298.992V274.559L342.992 274.012V271.531H350.023V298.992L353.207 299.539V302H342.992ZM365.121 302.41C363.168 302.41 361.482 301.954 360.062 301.043C358.656 300.118 357.569 298.849 356.801 297.234C356.033 295.607 355.648 293.751 355.648 291.668V291.238C355.648 289.155 356.033 287.306 356.801 285.691C357.569 284.064 358.656 282.788 360.062 281.863C361.482 280.939 363.155 280.477 365.082 280.477C367.035 280.477 368.715 280.939 370.121 281.863C371.54 282.788 372.634 284.057 373.402 285.672C374.171 287.286 374.555 289.142 374.555 291.238V291.668C374.555 293.764 374.171 295.626 373.402 297.254C372.634 298.868 371.547 300.132 370.141 301.043C368.734 301.954 367.061 302.41 365.121 302.41ZM365.121 299.402C366.345 299.402 367.367 299.07 368.188 298.406C369.021 297.729 369.646 296.811 370.062 295.652C370.492 294.48 370.707 293.152 370.707 291.668V291.238C370.707 289.754 370.492 288.432 370.062 287.273C369.646 286.102 369.021 285.184 368.188 284.52C367.354 283.842 366.319 283.504 365.082 283.504C363.858 283.504 362.829 283.842 361.996 284.52C361.163 285.184 360.538 286.102 360.121 287.273C359.704 288.432 359.496 289.754 359.496 291.238V291.668C359.496 293.152 359.704 294.48 360.121 295.652C360.538 296.811 361.163 297.729 361.996 298.406C362.842 299.07 363.884 299.402 365.121 299.402ZM377.172 310.535C376.755 310.535 376.378 310.503 376.039 310.438C375.701 310.385 375.349 310.301 374.984 310.184L375.238 307.254C375.421 307.319 375.727 307.378 376.156 307.43C376.599 307.482 376.938 307.508 377.172 307.508C377.94 307.508 378.546 307.169 378.988 306.492C379.444 305.828 379.672 304.91 379.672 303.738V283.895L376.488 283.348V280.867H383.52V303.738C383.52 305.913 382.96 307.586 381.84 308.758C380.72 309.943 379.164 310.535 377.172 310.535ZM379.477 275.652V271.531H383.52V275.652H379.477ZM394.633 302.41C392.432 302.41 390.759 301.876 389.613 300.809C388.467 299.728 387.895 298.211 387.895 296.258C387.895 294.253 388.715 292.645 390.355 291.434C391.996 290.21 394.275 289.598 397.191 289.598H400.961V287.527C400.961 286.251 400.57 285.262 399.789 284.559C399.021 283.855 397.934 283.504 396.527 283.504C395.642 283.504 394.874 283.615 394.223 283.836C393.572 284.044 392.979 284.337 392.445 284.715L392.035 287.664H389.066V282.82C390.017 282.052 391.124 281.473 392.387 281.082C393.65 280.678 395.049 280.477 396.586 280.477C399.151 280.477 401.163 281.089 402.621 282.312C404.079 283.536 404.809 285.288 404.809 287.566V297.742C404.809 298.016 404.809 298.283 404.809 298.543C404.822 298.803 404.841 299.064 404.867 299.324L406.918 299.539V302H401.391C401.273 301.427 401.182 300.913 401.117 300.457C401.052 300.001 401.007 299.546 400.98 299.09C400.238 300.04 399.307 300.835 398.188 301.473C397.081 302.098 395.896 302.41 394.633 302.41ZM395.199 299.188C396.475 299.188 397.641 298.882 398.695 298.27C399.75 297.658 400.505 296.922 400.961 296.062V292.234H397.055C395.284 292.234 393.956 292.658 393.07 293.504C392.185 294.35 391.742 295.294 391.742 296.336C391.742 297.26 392.029 297.97 392.602 298.465C393.174 298.947 394.04 299.188 395.199 299.188ZM131.703 355.41C129.411 355.41 127.621 354.674 126.332 353.203C125.043 351.732 124.398 349.44 124.398 346.328V336.895L121.977 336.348V333.867H124.398H128.246V346.367C128.246 348.62 128.578 350.169 129.242 351.016C129.906 351.862 130.941 352.285 132.348 352.285C133.715 352.285 134.841 352.012 135.727 351.465C136.625 350.905 137.302 350.117 137.758 349.102V336.895L134.926 336.348V333.867H137.758H141.605V351.992L144.027 352.539V355H138.148L137.895 351.875C137.23 353.008 136.371 353.88 135.316 354.492C134.275 355.104 133.07 355.41 131.703 355.41ZM146.742 355V352.539L149.926 351.992V336.895L146.742 336.348V333.867H153.363L153.637 337.012C154.34 335.892 155.219 335.026 156.273 334.414C157.341 333.789 158.552 333.477 159.906 333.477C162.185 333.477 163.949 334.147 165.199 335.488C166.449 336.816 167.074 338.874 167.074 341.66V351.992L170.258 352.539V355H160.043V352.539L163.227 351.992V341.738C163.227 339.876 162.855 338.555 162.113 337.773C161.384 336.992 160.264 336.602 158.754 336.602C157.647 336.602 156.664 336.868 155.805 337.402C154.958 337.936 154.281 338.665 153.773 339.59V351.992L156.957 352.539V355H146.742ZM172.855 355V352.539L176.039 351.992V336.895L172.855 336.348V333.867H179.887V351.992L183.07 352.539V355H172.855ZM175.844 328.652V324.531H179.887V328.652H175.844ZM194.281 355.41C192.862 355.41 191.534 355.267 190.297 354.98C189.06 354.694 187.745 354.251 186.352 353.652L186.312 348.633H189.223L189.945 351.66C190.674 351.96 191.378 352.181 192.055 352.324C192.745 352.454 193.487 352.52 194.281 352.52C195.844 352.52 196.964 352.22 197.641 351.621C198.318 351.022 198.656 350.28 198.656 349.395C198.656 348.561 198.311 347.858 197.621 347.285C196.944 346.699 195.707 346.204 193.91 345.801C191.358 345.215 189.477 344.434 188.266 343.457C187.068 342.467 186.469 341.152 186.469 339.512C186.469 338.366 186.801 337.344 187.465 336.445C188.129 335.534 189.053 334.811 190.238 334.277C191.423 333.743 192.803 333.477 194.379 333.477C195.98 333.477 197.348 333.659 198.48 334.023C199.626 334.388 200.622 334.876 201.469 335.488L201.664 340.312H198.773L198.148 337.5C197.693 337.161 197.152 336.901 196.527 336.719C195.902 336.536 195.186 336.445 194.379 336.445C193.181 336.445 192.204 336.725 191.449 337.285C190.707 337.845 190.336 338.548 190.336 339.395C190.336 339.889 190.44 340.319 190.648 340.684C190.87 341.048 191.286 341.38 191.898 341.68C192.51 341.966 193.409 342.253 194.594 342.539C197.536 343.229 199.587 344.108 200.746 345.176C201.918 346.243 202.504 347.559 202.504 349.121C202.504 350.905 201.84 352.402 200.512 353.613C199.197 354.811 197.12 355.41 194.281 355.41ZM215.316 355.41C213.363 355.41 211.664 354.967 210.219 354.082C208.773 353.184 207.654 351.94 206.859 350.352C206.078 348.763 205.688 346.927 205.688 344.844V343.984C205.688 341.979 206.098 340.189 206.918 338.613C207.751 337.025 208.852 335.775 210.219 334.863C211.599 333.939 213.103 333.477 214.73 333.477C216.632 333.477 218.22 333.867 219.496 334.648C220.785 335.43 221.755 336.53 222.406 337.949C223.057 339.355 223.383 341.016 223.383 342.93V345.332H209.672L209.613 345.43C209.639 346.784 209.874 347.988 210.316 349.043C210.772 350.085 211.423 350.905 212.27 351.504C213.116 352.103 214.132 352.402 215.316 352.402C216.618 352.402 217.758 352.22 218.734 351.855C219.724 351.478 220.577 350.964 221.293 350.312L222.797 352.812C222.042 353.542 221.039 354.16 219.789 354.668C218.552 355.163 217.061 355.41 215.316 355.41ZM209.789 342.324H219.535V341.816C219.535 340.801 219.353 339.896 218.988 339.102C218.637 338.294 218.103 337.663 217.387 337.207C216.684 336.738 215.798 336.504 214.73 336.504C213.871 336.504 213.09 336.758 212.387 337.266C211.684 337.76 211.104 338.438 210.648 339.297C210.193 340.156 209.893 341.133 209.75 342.227L209.789 342.324ZM225.766 355V352.539L228.109 352.09L234.418 344.316L228.246 336.797L226.156 336.348V333.867H234.438V336.348L232.328 336.582L236.664 341.973L240.883 336.562L238.617 336.348V333.867H246.762V336.348L244.613 336.797L238.891 344.258L245.473 352.09L247.66 352.539V355H238.695V352.539L241.234 352.324L236.605 346.68L232.113 352.324L234.398 352.539V355H225.766ZM251.312 337.812V333.867H255.16V337.812H251.312ZM251.664 361.074L249.496 359.629C250.108 358.691 250.57 357.734 250.883 356.758C251.195 355.781 251.352 354.746 251.352 353.652V350.684H255.199V353.594C255.199 354.87 254.88 356.204 254.242 357.598C253.604 358.991 252.745 360.15 251.664 361.074Z" fill="white"/>
<path d="M328.229 143.55L298.912 127.566C298.247 127.199 297.501 127.004 296.742 127H278.617C277.415 127 276.263 127.477 275.413 128.327C274.563 129.177 274.086 130.329 274.086 131.531C274.086 135.137 272.654 138.594 270.104 141.143C267.555 143.693 264.098 145.125 260.492 145.125C256.887 145.125 253.429 143.693 250.88 141.143C248.331 138.594 246.899 135.137 246.899 131.531C246.899 130.329 246.421 129.177 245.571 128.327C244.722 127.477 243.569 127 242.367 127H224.242C223.481 127.003 222.733 127.198 222.067 127.566L192.756 143.55C190.666 144.655 189.1 146.542 188.4 148.8C187.701 151.057 187.925 153.5 189.023 155.592L199.938 176.442C200.731 177.941 201.921 179.193 203.377 180.063C204.833 180.933 206.5 181.387 208.196 181.375H219.711V226.688C219.711 229.091 220.666 231.396 222.365 233.096C224.065 234.795 226.37 235.75 228.774 235.75H292.211C294.615 235.75 296.92 234.795 298.619 233.096C300.319 231.396 301.273 229.091 301.273 226.688V181.375H312.794C314.49 181.387 316.157 180.933 317.613 180.063C319.069 179.193 320.259 177.941 321.052 176.442L331.967 155.592C333.065 153.499 333.288 151.056 332.588 148.798C331.887 146.541 330.319 144.654 328.229 143.55ZM208.196 172.312C208.112 172.316 208.03 172.29 207.964 172.239L197.106 151.503L219.711 139.166V172.312H208.196ZM292.211 226.688H228.774V136.062H238.289C239.335 141.178 242.115 145.775 246.16 149.077C250.204 152.379 255.265 154.182 260.487 154.182C265.708 154.182 270.769 152.379 274.814 149.077C278.858 145.775 281.639 141.178 282.684 136.062H292.211V226.688ZM313.026 172.233C312.995 172.261 312.958 172.283 312.918 172.297C312.879 172.31 312.836 172.316 312.794 172.312H301.273V139.166L323.884 151.503L313.026 172.233Z" fill="white"/>
</svg>
