<svg width="520" height="473" viewBox="0 0 520 473" fill="none" xmlns="http://www.w3.org/2000/svg">
<rect width="520" height="473" rx="42" fill="#E94E1B"/>
<path d="M225.5 122.938C225.5 121.827 225.954 120.762 226.763 119.976C227.572 119.191 228.669 118.75 229.812 118.75H238.438C239.581 118.75 240.678 119.191 241.487 119.976C242.296 120.762 242.75 121.827 242.75 122.938V131.312C242.75 132.423 242.296 133.488 241.487 134.274C240.678 135.059 239.581 135.5 238.438 135.5H229.812C228.669 135.5 227.572 135.059 226.763 134.274C225.954 133.488 225.5 132.423 225.5 131.312V122.938ZM251.375 122.938C251.375 121.827 251.829 120.762 252.638 119.976C253.447 119.191 254.544 118.75 255.688 118.75H264.312C265.456 118.75 266.553 119.191 267.362 119.976C268.171 120.762 268.625 121.827 268.625 122.938V131.312C268.625 132.423 268.171 133.488 267.362 134.274C266.553 135.059 265.456 135.5 264.312 135.5H255.688C254.544 135.5 253.447 135.059 252.638 134.274C251.829 133.488 251.375 132.423 251.375 131.312V122.938ZM281.562 118.75C280.419 118.75 279.322 119.191 278.513 119.976C277.704 120.762 277.25 121.827 277.25 122.938V131.312C277.25 132.423 277.704 133.488 278.513 134.274C279.322 135.059 280.419 135.5 281.562 135.5H290.188C291.331 135.5 292.428 135.059 293.237 134.274C294.046 133.488 294.5 132.423 294.5 131.312V122.938C294.5 121.827 294.046 120.762 293.237 119.976C292.428 119.191 291.331 118.75 290.188 118.75H281.562ZM225.5 148.062C225.5 146.952 225.954 145.887 226.763 145.101C227.572 144.316 228.669 143.875 229.812 143.875H238.438C239.581 143.875 240.678 144.316 241.487 145.101C242.296 145.887 242.75 146.952 242.75 148.062V156.438C242.75 157.548 242.296 158.613 241.487 159.399C240.678 160.184 239.581 160.625 238.438 160.625H229.812C228.669 160.625 227.572 160.184 226.763 159.399C225.954 158.613 225.5 157.548 225.5 156.438V148.062ZM255.688 143.875C254.544 143.875 253.447 144.316 252.638 145.101C251.829 145.887 251.375 146.952 251.375 148.062V156.438C251.375 157.548 251.829 158.613 252.638 159.399C253.447 160.184 254.544 160.625 255.688 160.625H264.312C265.456 160.625 266.553 160.184 267.362 159.399C268.171 158.613 268.625 157.548 268.625 156.438V148.062C268.625 146.952 268.171 145.887 267.362 145.101C266.553 144.316 265.456 143.875 264.312 143.875H255.688ZM277.25 148.062C277.25 146.952 277.704 145.887 278.513 145.101C279.322 144.316 280.419 143.875 281.562 143.875H290.188C291.331 143.875 292.428 144.316 293.237 145.101C294.046 145.887 294.5 146.952 294.5 148.062V156.438C294.5 157.548 294.046 158.613 293.237 159.399C292.428 160.184 291.331 160.625 290.188 160.625H281.562C280.419 160.625 279.322 160.184 278.513 159.399C277.704 158.613 277.25 157.548 277.25 156.438V148.062ZM229.812 169C228.669 169 227.572 169.441 226.763 170.226C225.954 171.012 225.5 172.077 225.5 173.188V181.562C225.5 182.673 225.954 183.738 226.763 184.524C227.572 185.309 228.669 185.75 229.812 185.75H238.438C239.581 185.75 240.678 185.309 241.487 184.524C242.296 183.738 242.75 182.673 242.75 181.562V173.188C242.75 172.077 242.296 171.012 241.487 170.226C240.678 169.441 239.581 169 238.438 169H229.812ZM251.375 173.188C251.375 172.077 251.829 171.012 252.638 170.226C253.447 169.441 254.544 169 255.688 169H264.312C265.456 169 266.553 169.441 267.362 170.226C268.171 171.012 268.625 172.077 268.625 173.188V181.562C268.625 182.673 268.171 183.738 267.362 184.524C266.553 185.309 265.456 185.75 264.312 185.75H255.688C254.544 185.75 253.447 185.309 252.638 184.524C251.829 183.738 251.375 182.673 251.375 181.562V173.188ZM281.562 169C280.419 169 279.322 169.441 278.513 170.226C277.704 171.012 277.25 172.077 277.25 173.188V181.562C277.25 182.673 277.704 183.738 278.513 184.524C279.322 185.309 280.419 185.75 281.562 185.75H290.188C291.331 185.75 292.428 185.309 293.237 184.524C294.046 183.738 294.5 182.673 294.5 181.562V173.188C294.5 172.077 294.046 171.012 293.237 170.226C292.428 169.441 291.331 169 290.188 169H281.562Z" fill="white"/>
<path d="M208 110.375C208 108.154 208.909 106.024 210.526 104.453C212.144 102.882 214.338 102 216.625 102H302.875C305.162 102 307.356 102.882 308.974 104.453C310.591 106.024 311.5 108.154 311.5 110.375V227.625C311.5 229.846 310.591 231.976 308.974 233.547C307.356 235.118 305.162 236 302.875 236H216.625C214.338 236 212.144 235.118 210.526 233.547C208.909 231.976 208 229.846 208 227.625V110.375ZM302.875 110.375H216.625V227.625H242.5V206.688C242.5 205.577 242.954 204.512 243.763 203.726C244.572 202.941 245.669 202.5 246.812 202.5H272.688C273.831 202.5 274.928 202.941 275.737 203.726C276.546 204.512 277 205.577 277 206.688V227.625H302.875V110.375Z" fill="white"/>
<path d="M65.8359 313.41C64.1042 313.41 62.4375 313.156 60.8359 312.648C59.2344 312.141 57.7044 311.359 56.2461 310.305V304.23H59.2344L59.8789 308.703C60.7253 309.224 61.6432 309.628 62.6328 309.914C63.6224 310.201 64.6901 310.344 65.8359 310.344C67.138 310.344 68.2383 310.148 69.1367 309.758C70.0482 309.354 70.7448 308.801 71.2266 308.098C71.7083 307.395 71.9492 306.574 71.9492 305.637C71.9492 304.764 71.7409 303.996 71.3242 303.332C70.9076 302.668 70.2174 302.089 69.2539 301.594C68.3034 301.086 67.0013 300.643 65.3477 300.266C63.3945 299.81 61.7409 299.204 60.3867 298.449C59.0456 297.681 58.0234 296.757 57.3203 295.676C56.6302 294.582 56.2852 293.332 56.2852 291.926C56.2852 290.441 56.6758 289.113 57.457 287.941C58.2513 286.77 59.3516 285.845 60.7578 285.168C62.1641 284.491 63.8047 284.152 65.6797 284.152C67.6719 284.152 69.4297 284.458 70.9531 285.07C72.4896 285.669 73.7526 286.398 74.7422 287.258V292.941H71.7539L71.1094 288.879C70.5234 288.41 69.7943 288.02 68.9219 287.707C68.0495 287.395 66.9688 287.238 65.6797 287.238C64.5859 287.238 63.6224 287.434 62.7891 287.824C61.9557 288.202 61.3047 288.736 60.8359 289.426C60.3672 290.116 60.1328 290.93 60.1328 291.867C60.1328 292.688 60.3411 293.404 60.7578 294.016C61.1875 294.628 61.8776 295.168 62.8281 295.637C63.7917 296.092 65.0742 296.522 66.6758 296.926C69.6706 297.668 71.9362 298.768 73.4727 300.227C75.0221 301.672 75.7969 303.462 75.7969 305.598C75.7969 307.121 75.3867 308.475 74.5664 309.66C73.7461 310.832 72.5872 311.75 71.0898 312.414C69.6055 313.078 67.8542 313.41 65.8359 313.41ZM88.5508 313.41C86.5977 313.41 84.9115 312.954 83.4922 312.043C82.0859 311.118 80.9987 309.849 80.2305 308.234C79.4622 306.607 79.0781 304.751 79.0781 302.668V302.238C79.0781 300.155 79.4622 298.306 80.2305 296.691C80.9987 295.064 82.0859 293.788 83.4922 292.863C84.9115 291.939 86.5846 291.477 88.5117 291.477C90.4648 291.477 92.1445 291.939 93.5508 292.863C94.9701 293.788 96.0638 295.057 96.832 296.672C97.6003 298.286 97.9844 300.142 97.9844 302.238V302.668C97.9844 304.764 97.6003 306.626 96.832 308.254C96.0638 309.868 94.9766 311.132 93.5703 312.043C92.1641 312.954 90.4909 313.41 88.5508 313.41ZM88.5508 310.402C89.7747 310.402 90.7969 310.07 91.6172 309.406C92.4505 308.729 93.0755 307.811 93.4922 306.652C93.9219 305.48 94.1367 304.152 94.1367 302.668V302.238C94.1367 300.754 93.9219 299.432 93.4922 298.273C93.0755 297.102 92.4505 296.184 91.6172 295.52C90.7839 294.842 89.7487 294.504 88.5117 294.504C87.2878 294.504 86.2591 294.842 85.4258 295.52C84.5924 296.184 83.9674 297.102 83.5508 298.273C83.1341 299.432 82.9258 300.754 82.9258 302.238V302.668C82.9258 304.152 83.1341 305.48 83.5508 306.652C83.9674 307.811 84.5924 308.729 85.4258 309.406C86.2721 310.07 87.3138 310.402 88.5508 310.402ZM100.953 313V310.539L104.137 309.992V294.895L100.953 294.348V291.867H107.594L107.848 294.621C108.525 293.618 109.397 292.844 110.465 292.297C111.533 291.75 112.77 291.477 114.176 291.477C115.582 291.477 116.786 291.802 117.789 292.453C118.805 293.104 119.566 294.081 120.074 295.383C120.738 294.185 121.617 293.234 122.711 292.531C123.805 291.828 125.081 291.477 126.539 291.477C128.701 291.477 130.406 292.219 131.656 293.703C132.906 295.174 133.531 297.395 133.531 300.363V309.992L136.715 310.539V313H126.48V310.539L129.664 309.992V300.324C129.664 298.241 129.306 296.77 128.59 295.91C127.874 295.038 126.812 294.602 125.406 294.602C124.065 294.602 122.984 295.077 122.164 296.027C121.357 296.965 120.888 298.15 120.758 299.582V309.992L123.941 310.539V313H113.727V310.539L116.91 309.992V300.324C116.91 298.345 116.539 296.9 115.797 295.988C115.068 295.064 114.007 294.602 112.613 294.602C111.441 294.602 110.478 294.842 109.723 295.324C108.967 295.806 108.388 296.483 107.984 297.355V309.992L111.168 310.539V313H100.953ZM148.824 313.41C146.871 313.41 145.185 312.954 143.766 312.043C142.359 311.118 141.272 309.849 140.504 308.234C139.736 306.607 139.352 304.751 139.352 302.668V302.238C139.352 300.155 139.736 298.306 140.504 296.691C141.272 295.064 142.359 293.788 143.766 292.863C145.185 291.939 146.858 291.477 148.785 291.477C150.738 291.477 152.418 291.939 153.824 292.863C155.243 293.788 156.337 295.057 157.105 296.672C157.874 298.286 158.258 300.142 158.258 302.238V302.668C158.258 304.764 157.874 306.626 157.105 308.254C156.337 309.868 155.25 311.132 153.844 312.043C152.438 312.954 150.764 313.41 148.824 313.41ZM148.824 310.402C150.048 310.402 151.07 310.07 151.891 309.406C152.724 308.729 153.349 307.811 153.766 306.652C154.195 305.48 154.41 304.152 154.41 302.668V302.238C154.41 300.754 154.195 299.432 153.766 298.273C153.349 297.102 152.724 296.184 151.891 295.52C151.057 294.842 150.022 294.504 148.785 294.504C147.561 294.504 146.533 294.842 145.699 295.52C144.866 296.184 144.241 297.102 143.824 298.273C143.408 299.432 143.199 300.754 143.199 302.238V302.668C143.199 304.152 143.408 305.48 143.824 306.652C144.241 307.811 144.866 308.729 145.699 309.406C146.546 310.07 147.587 310.402 148.824 310.402ZM169.781 313.41C168.362 313.41 167.034 313.267 165.797 312.98C164.56 312.694 163.245 312.251 161.852 311.652L161.812 306.633H164.723L165.445 309.66C166.174 309.96 166.878 310.181 167.555 310.324C168.245 310.454 168.987 310.52 169.781 310.52C171.344 310.52 172.464 310.22 173.141 309.621C173.818 309.022 174.156 308.28 174.156 307.395C174.156 306.561 173.811 305.858 173.121 305.285C172.444 304.699 171.207 304.204 169.41 303.801C166.858 303.215 164.977 302.434 163.766 301.457C162.568 300.467 161.969 299.152 161.969 297.512C161.969 296.366 162.301 295.344 162.965 294.445C163.629 293.534 164.553 292.811 165.738 292.277C166.923 291.743 168.303 291.477 169.879 291.477C171.48 291.477 172.848 291.659 173.98 292.023C175.126 292.388 176.122 292.876 176.969 293.488L177.164 298.312H174.273L173.648 295.5C173.193 295.161 172.652 294.901 172.027 294.719C171.402 294.536 170.686 294.445 169.879 294.445C168.681 294.445 167.704 294.725 166.949 295.285C166.207 295.845 165.836 296.548 165.836 297.395C165.836 297.889 165.94 298.319 166.148 298.684C166.37 299.048 166.786 299.38 167.398 299.68C168.01 299.966 168.909 300.253 170.094 300.539C173.036 301.229 175.087 302.108 176.246 303.176C177.418 304.243 178.004 305.559 178.004 307.121C178.004 308.905 177.34 310.402 176.012 311.613C174.697 312.811 172.62 313.41 169.781 313.41ZM200.445 313.41C198.154 313.41 196.363 312.674 195.074 311.203C193.785 309.732 193.141 307.44 193.141 304.328V294.895L190.719 294.348V291.867H193.141H196.988V304.367C196.988 306.62 197.32 308.169 197.984 309.016C198.648 309.862 199.684 310.285 201.09 310.285C202.457 310.285 203.583 310.012 204.469 309.465C205.367 308.905 206.044 308.117 206.5 307.102V294.895L203.668 294.348V291.867H206.5H210.348V309.992L212.77 310.539V313H206.891L206.637 309.875C205.973 311.008 205.113 311.88 204.059 312.492C203.017 313.104 201.812 313.41 200.445 313.41ZM215.484 313V310.539L218.668 309.992V294.895L215.484 294.348V291.867H222.125L222.379 294.621C223.056 293.618 223.928 292.844 224.996 292.297C226.064 291.75 227.301 291.477 228.707 291.477C230.113 291.477 231.318 291.802 232.32 292.453C233.336 293.104 234.098 294.081 234.605 295.383C235.27 294.185 236.148 293.234 237.242 292.531C238.336 291.828 239.612 291.477 241.07 291.477C243.232 291.477 244.938 292.219 246.188 293.703C247.438 295.174 248.062 297.395 248.062 300.363V309.992L251.246 310.539V313H241.012V310.539L244.195 309.992V300.324C244.195 298.241 243.837 296.77 243.121 295.91C242.405 295.038 241.344 294.602 239.938 294.602C238.596 294.602 237.516 295.077 236.695 296.027C235.888 296.965 235.419 298.15 235.289 299.582V309.992L238.473 310.539V313H228.258V310.539L231.441 309.992V300.324C231.441 298.345 231.07 296.9 230.328 295.988C229.599 295.064 228.538 294.602 227.145 294.602C225.973 294.602 225.009 294.842 224.254 295.324C223.499 295.806 222.919 296.483 222.516 297.355V309.992L225.699 310.539V313H215.484ZM260.953 313.41C258.753 313.41 257.079 312.876 255.934 311.809C254.788 310.728 254.215 309.211 254.215 307.258C254.215 305.253 255.035 303.645 256.676 302.434C258.316 301.21 260.595 300.598 263.512 300.598H267.281V298.527C267.281 297.251 266.891 296.262 266.109 295.559C265.341 294.855 264.254 294.504 262.848 294.504C261.962 294.504 261.194 294.615 260.543 294.836C259.892 295.044 259.299 295.337 258.766 295.715L258.355 298.664H255.387V293.82C256.337 293.052 257.444 292.473 258.707 292.082C259.97 291.678 261.37 291.477 262.906 291.477C265.471 291.477 267.483 292.089 268.941 293.312C270.4 294.536 271.129 296.288 271.129 298.566V308.742C271.129 309.016 271.129 309.283 271.129 309.543C271.142 309.803 271.161 310.064 271.188 310.324L273.238 310.539V313H267.711C267.594 312.427 267.503 311.913 267.438 311.457C267.372 311.001 267.327 310.546 267.301 310.09C266.559 311.04 265.628 311.835 264.508 312.473C263.401 313.098 262.216 313.41 260.953 313.41ZM261.52 310.188C262.796 310.188 263.961 309.882 265.016 309.27C266.07 308.658 266.826 307.922 267.281 307.062V303.234H263.375C261.604 303.234 260.276 303.658 259.391 304.504C258.505 305.35 258.062 306.294 258.062 307.336C258.062 308.26 258.349 308.97 258.922 309.465C259.495 309.947 260.361 310.188 261.52 310.188ZM285.992 313V310.539L289.176 309.992V285.559L285.992 285.012V282.531H293.023V309.992L296.207 310.539V313H285.992ZM308.121 313.41C306.168 313.41 304.482 312.954 303.062 312.043C301.656 311.118 300.569 309.849 299.801 308.234C299.033 306.607 298.648 304.751 298.648 302.668V302.238C298.648 300.155 299.033 298.306 299.801 296.691C300.569 295.064 301.656 293.788 303.062 292.863C304.482 291.939 306.155 291.477 308.082 291.477C310.035 291.477 311.715 291.939 313.121 292.863C314.54 293.788 315.634 295.057 316.402 296.672C317.171 298.286 317.555 300.142 317.555 302.238V302.668C317.555 304.764 317.171 306.626 316.402 308.254C315.634 309.868 314.547 311.132 313.141 312.043C311.734 312.954 310.061 313.41 308.121 313.41ZM308.121 310.402C309.345 310.402 310.367 310.07 311.188 309.406C312.021 308.729 312.646 307.811 313.062 306.652C313.492 305.48 313.707 304.152 313.707 302.668V302.238C313.707 300.754 313.492 299.432 313.062 298.273C312.646 297.102 312.021 296.184 311.188 295.52C310.354 294.842 309.319 294.504 308.082 294.504C306.858 294.504 305.829 294.842 304.996 295.52C304.163 296.184 303.538 297.102 303.121 298.273C302.704 299.432 302.496 300.754 302.496 302.238V302.668C302.496 304.152 302.704 305.48 303.121 306.652C303.538 307.811 304.163 308.729 304.996 309.406C305.842 310.07 306.884 310.402 308.121 310.402ZM320.172 321.535C319.755 321.535 319.378 321.503 319.039 321.438C318.701 321.385 318.349 321.301 317.984 321.184L318.238 318.254C318.421 318.319 318.727 318.378 319.156 318.43C319.599 318.482 319.938 318.508 320.172 318.508C320.94 318.508 321.546 318.169 321.988 317.492C322.444 316.828 322.672 315.91 322.672 314.738V294.895L319.488 294.348V291.867H326.52V314.738C326.52 316.913 325.96 318.586 324.84 319.758C323.72 320.943 322.164 321.535 320.172 321.535ZM322.477 286.652V282.531H326.52V286.652H322.477ZM337.633 313.41C335.432 313.41 333.759 312.876 332.613 311.809C331.467 310.728 330.895 309.211 330.895 307.258C330.895 305.253 331.715 303.645 333.355 302.434C334.996 301.21 337.275 300.598 340.191 300.598H343.961V298.527C343.961 297.251 343.57 296.262 342.789 295.559C342.021 294.855 340.934 294.504 339.527 294.504C338.642 294.504 337.874 294.615 337.223 294.836C336.572 295.044 335.979 295.337 335.445 295.715L335.035 298.664H332.066V293.82C333.017 293.052 334.124 292.473 335.387 292.082C336.65 291.678 338.049 291.477 339.586 291.477C342.151 291.477 344.163 292.089 345.621 293.312C347.079 294.536 347.809 296.288 347.809 298.566V308.742C347.809 309.016 347.809 309.283 347.809 309.543C347.822 309.803 347.841 310.064 347.867 310.324L349.918 310.539V313H344.391C344.273 312.427 344.182 311.913 344.117 311.457C344.052 311.001 344.007 310.546 343.98 310.09C343.238 311.04 342.307 311.835 341.188 312.473C340.081 313.098 338.896 313.41 337.633 313.41ZM338.199 310.188C339.475 310.188 340.641 309.882 341.695 309.27C342.75 308.658 343.505 307.922 343.961 307.062V303.234H340.055C338.284 303.234 336.956 303.658 336.07 304.504C335.185 305.35 334.742 306.294 334.742 307.336C334.742 308.26 335.029 308.97 335.602 309.465C336.174 309.947 337.04 310.188 338.199 310.188ZM362.789 313V310.539L365.973 309.992V294.719H362.672V291.867H365.973V289.191C365.973 286.939 366.559 285.201 367.73 283.977C368.915 282.74 370.562 282.121 372.672 282.121C373.115 282.121 373.59 282.16 374.098 282.238C374.618 282.303 375.152 282.401 375.699 282.531L375.23 285.461C374.996 285.409 374.677 285.363 374.273 285.324C373.883 285.285 373.512 285.266 373.16 285.266C372.027 285.266 371.188 285.604 370.641 286.281C370.094 286.945 369.82 287.915 369.82 289.191V291.867H374.43V294.719H369.82V309.992L373.453 310.539V313H362.789ZM376.91 313V310.539L380.094 309.992V294.895L376.91 294.348V291.867H383.941V309.992L387.125 310.539V313H376.91ZM379.566 287.844L383.16 282.531H387.652L387.691 282.648L382.438 287.844H379.742H379.566ZM398.336 313.41C396.917 313.41 395.589 313.267 394.352 312.98C393.115 312.694 391.799 312.251 390.406 311.652L390.367 306.633H393.277L394 309.66C394.729 309.96 395.432 310.181 396.109 310.324C396.799 310.454 397.542 310.52 398.336 310.52C399.898 310.52 401.018 310.22 401.695 309.621C402.372 309.022 402.711 308.28 402.711 307.395C402.711 306.561 402.366 305.858 401.676 305.285C400.999 304.699 399.762 304.204 397.965 303.801C395.413 303.215 393.531 302.434 392.32 301.457C391.122 300.467 390.523 299.152 390.523 297.512C390.523 296.366 390.855 295.344 391.52 294.445C392.184 293.534 393.108 292.811 394.293 292.277C395.478 291.743 396.858 291.477 398.434 291.477C400.035 291.477 401.402 291.659 402.535 292.023C403.681 292.388 404.677 292.876 405.523 293.488L405.719 298.312H402.828L402.203 295.5C401.747 295.161 401.207 294.901 400.582 294.719C399.957 294.536 399.241 294.445 398.434 294.445C397.236 294.445 396.259 294.725 395.504 295.285C394.762 295.845 394.391 296.548 394.391 297.395C394.391 297.889 394.495 298.319 394.703 298.684C394.924 299.048 395.341 299.38 395.953 299.68C396.565 299.966 397.464 300.253 398.648 300.539C401.591 301.229 403.642 302.108 404.801 303.176C405.973 304.243 406.559 305.559 406.559 307.121C406.559 308.905 405.895 310.402 404.566 311.613C403.251 312.811 401.174 313.41 398.336 313.41ZM409.605 313V310.539L412.789 309.992V294.895L409.605 294.348V291.867H416.637V309.992L419.82 310.539V313H409.605ZM412.594 286.652V282.531H416.637V286.652H412.594ZM432.027 313.41C430.113 313.41 428.447 312.967 427.027 312.082C425.608 311.184 424.508 309.94 423.727 308.352C422.945 306.763 422.555 304.927 422.555 302.844V302.023C422.555 300.018 422.932 298.221 423.688 296.633C424.443 295.044 425.53 293.788 426.949 292.863C428.368 291.939 430.061 291.477 432.027 291.477C433.733 291.477 435.224 291.757 436.5 292.316C437.789 292.876 438.87 293.645 439.742 294.621L439.84 299.699H436.832L436.168 296.008C435.725 295.552 435.172 295.188 434.508 294.914C433.844 294.641 433.062 294.504 432.164 294.504C431.018 294.504 430.009 294.842 429.137 295.52C428.277 296.197 427.607 297.102 427.125 298.234C426.643 299.367 426.402 300.63 426.402 302.023V302.844C426.402 304.38 426.624 305.715 427.066 306.848C427.522 307.98 428.167 308.859 429 309.484C429.846 310.096 430.849 310.402 432.008 310.402C433.31 310.402 434.391 310.044 435.25 309.328C436.109 308.612 436.637 307.629 436.832 306.379H440.289L440.328 306.496C440.263 307.707 439.905 308.84 439.254 309.895C438.603 310.949 437.672 311.802 436.461 312.453C435.263 313.091 433.785 313.41 432.027 313.41ZM450.562 313.41C448.362 313.41 446.689 312.876 445.543 311.809C444.397 310.728 443.824 309.211 443.824 307.258C443.824 305.253 444.645 303.645 446.285 302.434C447.926 301.21 450.204 300.598 453.121 300.598H456.891V298.527C456.891 297.251 456.5 296.262 455.719 295.559C454.951 294.855 453.863 294.504 452.457 294.504C451.572 294.504 450.803 294.615 450.152 294.836C449.501 295.044 448.909 295.337 448.375 295.715L447.965 298.664H444.996V293.82C445.947 293.052 447.053 292.473 448.316 292.082C449.579 291.678 450.979 291.477 452.516 291.477C455.081 291.477 457.092 292.089 458.551 293.312C460.009 294.536 460.738 296.288 460.738 298.566V308.742C460.738 309.016 460.738 309.283 460.738 309.543C460.751 309.803 460.771 310.064 460.797 310.324L462.848 310.539V313H457.32C457.203 312.427 457.112 311.913 457.047 311.457C456.982 311.001 456.936 310.546 456.91 310.09C456.168 311.04 455.237 311.835 454.117 312.473C453.01 313.098 451.826 313.41 450.562 313.41ZM451.129 310.188C452.405 310.188 453.57 309.882 454.625 309.27C455.68 308.658 456.435 307.922 456.891 307.062V303.234H452.984C451.214 303.234 449.885 303.658 449 304.504C448.115 305.35 447.672 306.294 447.672 307.336C447.672 308.26 447.958 308.97 448.531 309.465C449.104 309.947 449.97 310.188 451.129 310.188ZM75.0352 366.41C73.082 366.41 71.3828 365.967 69.9375 365.082C68.4922 364.184 67.3724 362.94 66.5781 361.352C65.7969 359.763 65.4062 357.927 65.4062 355.844V354.984C65.4062 352.979 65.8164 351.189 66.6367 349.613C67.4701 348.025 68.5703 346.775 69.9375 345.863C71.3177 344.939 72.8216 344.477 74.4492 344.477C76.3503 344.477 77.9388 344.867 79.2148 345.648C80.5039 346.43 81.474 347.53 82.125 348.949C82.776 350.355 83.1016 352.016 83.1016 353.93V356.332H69.3906L69.332 356.43C69.3581 357.784 69.5924 358.988 70.0352 360.043C70.4909 361.085 71.1419 361.905 71.9883 362.504C72.8346 363.103 73.8503 363.402 75.0352 363.402C76.3372 363.402 77.4766 363.22 78.4531 362.855C79.4427 362.478 80.2956 361.964 81.0117 361.312L82.5156 363.812C81.7604 364.542 80.7578 365.16 79.5078 365.668C78.2708 366.163 76.7799 366.41 75.0352 366.41ZM69.5078 353.324H79.2539V352.816C79.2539 351.801 79.0716 350.896 78.707 350.102C78.3555 349.294 77.8216 348.663 77.1055 348.207C76.4023 347.738 75.5169 347.504 74.4492 347.504C73.5898 347.504 72.8086 347.758 72.1055 348.266C71.4023 348.76 70.8229 349.438 70.3672 350.297C69.9115 351.156 69.612 352.133 69.4688 353.227L69.5078 353.324ZM105.621 366.41C103.668 366.41 101.982 365.954 100.562 365.043C99.1562 364.118 98.069 362.849 97.3008 361.234C96.5326 359.607 96.1484 357.751 96.1484 355.668V355.238C96.1484 353.155 96.5326 351.306 97.3008 349.691C98.069 348.064 99.1562 346.788 100.562 345.863C101.982 344.939 103.655 344.477 105.582 344.477C107.535 344.477 109.215 344.939 110.621 345.863C112.04 346.788 113.134 348.057 113.902 349.672C114.671 351.286 115.055 353.142 115.055 355.238V355.668C115.055 357.764 114.671 359.626 113.902 361.254C113.134 362.868 112.047 364.132 110.641 365.043C109.234 365.954 107.561 366.41 105.621 366.41ZM105.621 363.402C106.845 363.402 107.867 363.07 108.688 362.406C109.521 361.729 110.146 360.811 110.562 359.652C110.992 358.48 111.207 357.152 111.207 355.668V355.238C111.207 353.754 110.992 352.432 110.562 351.273C110.146 350.102 109.521 349.184 108.688 348.52C107.854 347.842 106.819 347.504 105.582 347.504C104.358 347.504 103.329 347.842 102.496 348.52C101.663 349.184 101.038 350.102 100.621 351.273C100.204 352.432 99.9961 353.754 99.9961 355.238V355.668C99.9961 357.152 100.204 358.48 100.621 359.652C101.038 360.811 101.663 361.729 102.496 362.406C103.342 363.07 104.384 363.402 105.621 363.402ZM118.023 366V363.539L121.207 362.992V347.895L118.023 347.348V344.867H124.645L124.918 348.012C125.621 346.892 126.5 346.026 127.555 345.414C128.622 344.789 129.833 344.477 131.188 344.477C133.466 344.477 135.23 345.147 136.48 346.488C137.73 347.816 138.355 349.874 138.355 352.66V362.992L141.539 363.539V366H131.324V363.539L134.508 362.992V352.738C134.508 350.876 134.137 349.555 133.395 348.773C132.665 347.992 131.546 347.602 130.035 347.602C128.928 347.602 127.945 347.868 127.086 348.402C126.24 348.936 125.562 349.665 125.055 350.59V362.992L128.238 363.539V366H118.023ZM144.078 366V363.539L147.262 362.992V338.559L144.078 338.012V335.531H151.109V362.992L154.293 363.539V366H144.078ZM156.91 366V363.539L160.094 362.992V347.895L156.91 347.348V344.867H163.941V362.992L167.125 363.539V366H156.91ZM159.898 339.652V335.531H163.941V339.652H159.898ZM169.781 366V363.539L172.965 362.992V347.895L169.781 347.348V344.867H176.402L176.676 348.012C177.379 346.892 178.258 346.026 179.312 345.414C180.38 344.789 181.591 344.477 182.945 344.477C185.224 344.477 186.988 345.147 188.238 346.488C189.488 347.816 190.113 349.874 190.113 352.66V362.992L193.297 363.539V366H183.082V363.539L186.266 362.992V352.738C186.266 350.876 185.895 349.555 185.152 348.773C184.423 347.992 183.303 347.602 181.793 347.602C180.686 347.602 179.703 347.868 178.844 348.402C177.997 348.936 177.32 349.665 176.812 350.59V362.992L179.996 363.539V366H169.781ZM205.348 366.41C203.395 366.41 201.695 365.967 200.25 365.082C198.805 364.184 197.685 362.94 196.891 361.352C196.109 359.763 195.719 357.927 195.719 355.844V354.984C195.719 352.979 196.129 351.189 196.949 349.613C197.783 348.025 198.883 346.775 200.25 345.863C201.63 344.939 203.134 344.477 204.762 344.477C206.663 344.477 208.251 344.867 209.527 345.648C210.816 346.43 211.786 347.53 212.438 348.949C213.089 350.355 213.414 352.016 213.414 353.93V356.332H199.703L199.645 356.43C199.671 357.784 199.905 358.988 200.348 360.043C200.803 361.085 201.454 361.905 202.301 362.504C203.147 363.103 204.163 363.402 205.348 363.402C206.65 363.402 207.789 363.22 208.766 362.855C209.755 362.478 210.608 361.964 211.324 361.312L212.828 363.812C212.073 364.542 211.07 365.16 209.82 365.668C208.583 366.163 207.092 366.41 205.348 366.41ZM199.82 353.324H209.566V352.816C209.566 351.801 209.384 350.896 209.02 350.102C208.668 349.294 208.134 348.663 207.418 348.207C206.715 347.738 205.829 347.504 204.762 347.504C203.902 347.504 203.121 347.758 202.418 348.266C201.715 348.76 201.135 349.438 200.68 350.297C200.224 351.156 199.924 352.133 199.781 353.227L199.82 353.324ZM217.828 348.812V344.867H221.676V348.812H217.828ZM218.18 372.074L216.012 370.629C216.624 369.691 217.086 368.734 217.398 367.758C217.711 366.781 217.867 365.746 217.867 364.652V361.684H221.715V364.594C221.715 365.87 221.396 367.204 220.758 368.598C220.12 369.991 219.26 371.15 218.18 372.074Z" fill="white"/>
</svg>
