<svg width="520" height="474" viewBox="0 0 520 474" fill="none" xmlns="http://www.w3.org/2000/svg">
<rect y="0.799805" width="520" height="473" rx="42" fill="#E94E1B"/>
<path d="M229.242 185.787C229.242 186.881 228.808 187.93 228.034 188.704C227.261 189.477 226.211 189.912 225.117 189.912H200.367C198.196 189.91 196.063 189.338 194.183 188.251C192.302 187.164 190.741 185.602 189.656 183.721C188.571 181.84 188 179.707 188 177.535C188 175.363 188.572 173.23 189.658 171.349L207.339 140.798L200.094 142.732C199.569 142.872 199.022 142.908 198.484 142.836C197.945 142.765 197.426 142.588 196.956 142.316C196.006 141.767 195.314 140.863 195.031 139.803C194.748 138.744 194.897 137.615 195.446 136.665C195.996 135.715 196.9 135.023 197.96 134.74L214.857 130.218C215.38 130.078 215.926 130.042 216.463 130.112C217 130.183 217.519 130.359 217.988 130.63C218.457 130.901 218.868 131.262 219.198 131.692C219.528 132.122 219.77 132.613 219.91 133.136L224.442 150.033C224.585 150.559 224.623 151.108 224.552 151.649C224.482 152.189 224.306 152.71 224.033 153.182C223.76 153.654 223.396 154.067 222.963 154.397C222.53 154.728 222.035 154.969 221.508 155.107C221.158 155.198 220.798 155.245 220.436 155.246C219.528 155.245 218.646 154.945 217.927 154.393C217.207 153.84 216.69 153.065 216.455 152.189L214.496 144.893L196.815 175.474C196.454 176.1 196.263 176.809 196.262 177.532C196.261 178.254 196.45 178.964 196.81 179.591C197.17 180.217 197.688 180.738 198.312 181.102C198.936 181.465 199.645 181.658 200.367 181.662H225.117C226.211 181.662 227.261 182.096 228.034 182.87C228.808 183.644 229.242 184.693 229.242 185.787ZM301.806 171.349L289.875 150.724C289.304 149.826 288.408 149.184 287.375 148.931C286.342 148.678 285.25 148.834 284.329 149.366C283.408 149.898 282.728 150.766 282.432 151.788C282.136 152.81 282.245 153.907 282.739 154.849L294.67 175.474C295.031 176.1 295.222 176.809 295.223 177.532C295.224 178.254 295.035 178.964 294.675 179.591C294.315 180.217 293.797 180.738 293.173 181.102C292.549 181.465 291.84 181.658 291.117 181.662H255.699L261.031 176.33C261.805 175.557 262.24 174.508 262.24 173.414C262.241 172.319 261.807 171.27 261.033 170.496C260.26 169.722 259.211 169.287 258.117 169.286C257.023 169.286 255.973 169.72 255.199 170.493L242.824 182.868C242.441 183.251 242.136 183.706 241.929 184.207C241.721 184.708 241.614 185.245 241.614 185.787C241.614 186.329 241.721 186.866 241.929 187.366C242.136 187.867 242.441 188.322 242.824 188.705L255.199 201.08C255.582 201.463 256.037 201.767 256.538 201.974C257.038 202.181 257.575 202.287 258.117 202.287C258.658 202.287 259.195 202.18 259.695 201.973C260.196 201.765 260.65 201.461 261.033 201.078C261.416 200.694 261.72 200.239 261.927 199.739C262.134 199.238 262.241 198.702 262.24 198.16C262.24 197.618 262.133 197.082 261.926 196.581C261.718 196.081 261.414 195.626 261.031 195.243L255.699 189.912H291.117C293.289 189.91 295.422 189.338 297.302 188.251C299.183 187.164 300.744 185.602 301.829 183.721C302.914 181.84 303.485 179.707 303.485 177.535C303.485 175.363 302.913 173.23 301.827 171.349H301.806ZM245.742 95.0368C246.467 95.0295 247.181 95.2171 247.809 95.5799C248.436 95.9427 248.955 96.4674 249.311 97.0993L266.991 127.65L259.731 125.701C258.688 125.456 257.589 125.627 256.67 126.178C255.75 126.729 255.081 127.616 254.804 128.652C254.527 129.687 254.664 130.79 255.186 131.726C255.709 132.663 256.575 133.359 257.602 133.667L274.504 138.2C274.852 138.291 275.211 138.338 275.571 138.339C276.479 138.338 277.361 138.038 278.08 137.485C278.8 136.932 279.317 136.158 279.552 135.281L284.084 118.374C284.24 117.846 284.288 117.292 284.227 116.746C284.165 116.199 283.995 115.67 283.725 115.19C283.456 114.71 283.094 114.288 282.659 113.951C282.225 113.613 281.727 113.366 281.195 113.223C280.664 113.081 280.109 113.046 279.564 113.121C279.019 113.197 278.494 113.38 278.021 113.661C277.548 113.942 277.136 114.315 276.809 114.758C276.482 115.201 276.247 115.704 276.118 116.239L274.159 123.546L256.452 92.9743C255.365 91.0966 253.803 89.5377 251.923 88.454C250.044 87.3703 247.912 86.7998 245.742 86.7998C243.573 86.7998 241.441 87.3703 239.561 88.454C237.682 89.5377 236.12 91.0966 235.033 92.9743L223.091 113.599C222.578 114.544 222.454 115.652 222.746 116.687C223.038 117.722 223.722 118.602 224.653 119.14C225.584 119.677 226.688 119.83 227.73 119.566C228.773 119.302 229.67 118.641 230.232 117.724L242.174 97.0993C242.53 96.4674 243.049 95.9427 243.676 95.5799C244.304 95.2171 245.018 95.0295 245.742 95.0368Z" fill="white"/>
<path d="M86.8359 301.21C85.1042 301.21 83.4375 300.956 81.8359 300.448C80.2344 299.94 78.7044 299.159 77.2461 298.104V292.03H80.2344L80.8789 296.503C81.7253 297.024 82.6432 297.427 83.6328 297.714C84.6224 298 85.6901 298.144 86.8359 298.144C88.138 298.144 89.2383 297.948 90.1367 297.558C91.0482 297.154 91.7448 296.601 92.2266 295.897C92.7083 295.194 92.9492 294.374 92.9492 293.437C92.9492 292.564 92.7409 291.796 92.3242 291.132C91.9076 290.468 91.2174 289.888 90.2539 289.394C89.3034 288.886 88.0013 288.443 86.3477 288.065C84.3945 287.61 82.7409 287.004 81.3867 286.249C80.0456 285.481 79.0234 284.556 78.3203 283.476C77.6302 282.382 77.2852 281.132 77.2852 279.726C77.2852 278.241 77.6758 276.913 78.457 275.741C79.2513 274.569 80.3516 273.645 81.7578 272.968C83.1641 272.291 84.8047 271.952 86.6797 271.952C88.6719 271.952 90.4297 272.258 91.9531 272.87C93.4896 273.469 94.7526 274.198 95.7422 275.058V280.741H92.7539L92.1094 276.679C91.5234 276.21 90.7943 275.819 89.9219 275.507C89.0495 275.194 87.9688 275.038 86.6797 275.038C85.5859 275.038 84.6224 275.233 83.7891 275.624C82.9557 276.002 82.3047 276.535 81.8359 277.226C81.3672 277.916 81.1328 278.729 81.1328 279.667C81.1328 280.487 81.3411 281.203 81.7578 281.815C82.1875 282.427 82.8776 282.968 83.8281 283.437C84.7917 283.892 86.0742 284.322 87.6758 284.726C90.6706 285.468 92.9362 286.568 94.4727 288.026C96.0221 289.472 96.7969 291.262 96.7969 293.397C96.7969 294.921 96.3867 296.275 95.5664 297.46C94.7461 298.632 93.5872 299.55 92.0898 300.214C90.6055 300.878 88.8542 301.21 86.8359 301.21ZM109.551 301.21C107.598 301.21 105.911 300.754 104.492 299.843C103.086 298.918 101.999 297.649 101.23 296.034C100.462 294.407 100.078 292.551 100.078 290.468V290.038C100.078 287.955 100.462 286.106 101.23 284.491C101.999 282.864 103.086 281.588 104.492 280.663C105.911 279.739 107.585 279.276 109.512 279.276C111.465 279.276 113.145 279.739 114.551 280.663C115.97 281.588 117.064 282.857 117.832 284.472C118.6 286.086 118.984 287.942 118.984 290.038V290.468C118.984 292.564 118.6 294.426 117.832 296.054C117.064 297.668 115.977 298.931 114.57 299.843C113.164 300.754 111.491 301.21 109.551 301.21ZM109.551 298.202C110.775 298.202 111.797 297.87 112.617 297.206C113.451 296.529 114.076 295.611 114.492 294.452C114.922 293.28 115.137 291.952 115.137 290.468V290.038C115.137 288.554 114.922 287.232 114.492 286.073C114.076 284.901 113.451 283.983 112.617 283.319C111.784 282.642 110.749 282.304 109.512 282.304C108.288 282.304 107.259 282.642 106.426 283.319C105.592 283.983 104.967 284.901 104.551 286.073C104.134 287.232 103.926 288.554 103.926 290.038V290.468C103.926 291.952 104.134 293.28 104.551 294.452C104.967 295.611 105.592 296.529 106.426 297.206C107.272 297.87 108.314 298.202 109.551 298.202ZM121.953 300.8V298.339L125.137 297.792V282.694L121.953 282.147V279.667H128.594L128.848 282.421C129.525 281.418 130.397 280.644 131.465 280.097C132.533 279.55 133.77 279.276 135.176 279.276C136.582 279.276 137.786 279.602 138.789 280.253C139.805 280.904 140.566 281.881 141.074 283.183C141.738 281.985 142.617 281.034 143.711 280.331C144.805 279.628 146.081 279.276 147.539 279.276C149.701 279.276 151.406 280.019 152.656 281.503C153.906 282.974 154.531 285.194 154.531 288.163V297.792L157.715 298.339V300.8H147.48V298.339L150.664 297.792V288.124C150.664 286.041 150.306 284.569 149.59 283.71C148.874 282.838 147.812 282.401 146.406 282.401C145.065 282.401 143.984 282.877 143.164 283.827C142.357 284.765 141.888 285.95 141.758 287.382V297.792L144.941 298.339V300.8H134.727V298.339L137.91 297.792V288.124C137.91 286.145 137.539 284.7 136.797 283.788C136.068 282.864 135.007 282.401 133.613 282.401C132.441 282.401 131.478 282.642 130.723 283.124C129.967 283.606 129.388 284.283 128.984 285.155V297.792L132.168 298.339V300.8H121.953ZM169.824 301.21C167.871 301.21 166.185 300.754 164.766 299.843C163.359 298.918 162.272 297.649 161.504 296.034C160.736 294.407 160.352 292.551 160.352 290.468V290.038C160.352 287.955 160.736 286.106 161.504 284.491C162.272 282.864 163.359 281.588 164.766 280.663C166.185 279.739 167.858 279.276 169.785 279.276C171.738 279.276 173.418 279.739 174.824 280.663C176.243 281.588 177.337 282.857 178.105 284.472C178.874 286.086 179.258 287.942 179.258 290.038V290.468C179.258 292.564 178.874 294.426 178.105 296.054C177.337 297.668 176.25 298.931 174.844 299.843C173.438 300.754 171.764 301.21 169.824 301.21ZM169.824 298.202C171.048 298.202 172.07 297.87 172.891 297.206C173.724 296.529 174.349 295.611 174.766 294.452C175.195 293.28 175.41 291.952 175.41 290.468V290.038C175.41 288.554 175.195 287.232 174.766 286.073C174.349 284.901 173.724 283.983 172.891 283.319C172.057 282.642 171.022 282.304 169.785 282.304C168.561 282.304 167.533 282.642 166.699 283.319C165.866 283.983 165.241 284.901 164.824 286.073C164.408 287.232 164.199 288.554 164.199 290.038V290.468C164.199 291.952 164.408 293.28 164.824 294.452C165.241 295.611 165.866 296.529 166.699 297.206C167.546 297.87 168.587 298.202 169.824 298.202ZM190.781 301.21C189.362 301.21 188.034 301.067 186.797 300.78C185.56 300.494 184.245 300.051 182.852 299.452L182.812 294.433H185.723L186.445 297.46C187.174 297.759 187.878 297.981 188.555 298.124C189.245 298.254 189.987 298.319 190.781 298.319C192.344 298.319 193.464 298.02 194.141 297.421C194.818 296.822 195.156 296.08 195.156 295.194C195.156 294.361 194.811 293.658 194.121 293.085C193.444 292.499 192.207 292.004 190.41 291.601C187.858 291.015 185.977 290.233 184.766 289.257C183.568 288.267 182.969 286.952 182.969 285.312C182.969 284.166 183.301 283.144 183.965 282.245C184.629 281.334 185.553 280.611 186.738 280.077C187.923 279.543 189.303 279.276 190.879 279.276C192.48 279.276 193.848 279.459 194.98 279.823C196.126 280.188 197.122 280.676 197.969 281.288L198.164 286.112H195.273L194.648 283.3C194.193 282.961 193.652 282.701 193.027 282.519C192.402 282.336 191.686 282.245 190.879 282.245C189.681 282.245 188.704 282.525 187.949 283.085C187.207 283.645 186.836 284.348 186.836 285.194C186.836 285.689 186.94 286.119 187.148 286.483C187.37 286.848 187.786 287.18 188.398 287.479C189.01 287.766 189.909 288.052 191.094 288.339C194.036 289.029 196.087 289.908 197.246 290.976C198.418 292.043 199.004 293.358 199.004 294.921C199.004 296.705 198.34 298.202 197.012 299.413C195.697 300.611 193.62 301.21 190.781 301.21ZM221.445 301.21C219.154 301.21 217.363 300.474 216.074 299.003C214.785 297.532 214.141 295.24 214.141 292.128V282.694L211.719 282.147V279.667H214.141H217.988V292.167C217.988 294.42 218.32 295.969 218.984 296.815C219.648 297.662 220.684 298.085 222.09 298.085C223.457 298.085 224.583 297.812 225.469 297.265C226.367 296.705 227.044 295.917 227.5 294.901V282.694L224.668 282.147V279.667H227.5H231.348V297.792L233.77 298.339V300.8H227.891L227.637 297.675C226.973 298.808 226.113 299.68 225.059 300.292C224.017 300.904 222.812 301.21 221.445 301.21ZM236.484 300.8V298.339L239.668 297.792V282.694L236.484 282.147V279.667H243.125L243.379 282.421C244.056 281.418 244.928 280.644 245.996 280.097C247.064 279.55 248.301 279.276 249.707 279.276C251.113 279.276 252.318 279.602 253.32 280.253C254.336 280.904 255.098 281.881 255.605 283.183C256.27 281.985 257.148 281.034 258.242 280.331C259.336 279.628 260.612 279.276 262.07 279.276C264.232 279.276 265.938 280.019 267.188 281.503C268.438 282.974 269.062 285.194 269.062 288.163V297.792L272.246 298.339V300.8H262.012V298.339L265.195 297.792V288.124C265.195 286.041 264.837 284.569 264.121 283.71C263.405 282.838 262.344 282.401 260.938 282.401C259.596 282.401 258.516 282.877 257.695 283.827C256.888 284.765 256.419 285.95 256.289 287.382V297.792L259.473 298.339V300.8H249.258V298.339L252.441 297.792V288.124C252.441 286.145 252.07 284.7 251.328 283.788C250.599 282.864 249.538 282.401 248.145 282.401C246.973 282.401 246.009 282.642 245.254 283.124C244.499 283.606 243.919 284.283 243.516 285.155V297.792L246.699 298.339V300.8H236.484ZM281.953 301.21C279.753 301.21 278.079 300.676 276.934 299.608C275.788 298.528 275.215 297.011 275.215 295.058C275.215 293.052 276.035 291.444 277.676 290.233C279.316 289.009 281.595 288.397 284.512 288.397H288.281V286.327C288.281 285.051 287.891 284.062 287.109 283.358C286.341 282.655 285.254 282.304 283.848 282.304C282.962 282.304 282.194 282.414 281.543 282.636C280.892 282.844 280.299 283.137 279.766 283.515L279.355 286.464H276.387V281.62C277.337 280.852 278.444 280.272 279.707 279.882C280.97 279.478 282.37 279.276 283.906 279.276C286.471 279.276 288.483 279.888 289.941 281.112C291.4 282.336 292.129 284.088 292.129 286.366V296.542C292.129 296.815 292.129 297.082 292.129 297.343C292.142 297.603 292.161 297.864 292.188 298.124L294.238 298.339V300.8H288.711C288.594 300.227 288.503 299.713 288.438 299.257C288.372 298.801 288.327 298.345 288.301 297.89C287.559 298.84 286.628 299.634 285.508 300.272C284.401 300.897 283.216 301.21 281.953 301.21ZM282.52 297.987C283.796 297.987 284.961 297.681 286.016 297.069C287.07 296.457 287.826 295.722 288.281 294.862V291.034H284.375C282.604 291.034 281.276 291.457 280.391 292.304C279.505 293.15 279.062 294.094 279.062 295.136C279.062 296.06 279.349 296.77 279.922 297.265C280.495 297.746 281.361 297.987 282.52 297.987ZM306.992 300.8V298.339L310.176 297.792V273.358L306.992 272.812V270.331H314.023V297.792L317.207 298.339V300.8H306.992ZM329.121 301.21C327.168 301.21 325.482 300.754 324.062 299.843C322.656 298.918 321.569 297.649 320.801 296.034C320.033 294.407 319.648 292.551 319.648 290.468V290.038C319.648 287.955 320.033 286.106 320.801 284.491C321.569 282.864 322.656 281.588 324.062 280.663C325.482 279.739 327.155 279.276 329.082 279.276C331.035 279.276 332.715 279.739 334.121 280.663C335.54 281.588 336.634 282.857 337.402 284.472C338.171 286.086 338.555 287.942 338.555 290.038V290.468C338.555 292.564 338.171 294.426 337.402 296.054C336.634 297.668 335.547 298.931 334.141 299.843C332.734 300.754 331.061 301.21 329.121 301.21ZM329.121 298.202C330.345 298.202 331.367 297.87 332.188 297.206C333.021 296.529 333.646 295.611 334.062 294.452C334.492 293.28 334.707 291.952 334.707 290.468V290.038C334.707 288.554 334.492 287.232 334.062 286.073C333.646 284.901 333.021 283.983 332.188 283.319C331.354 282.642 330.319 282.304 329.082 282.304C327.858 282.304 326.829 282.642 325.996 283.319C325.163 283.983 324.538 284.901 324.121 286.073C323.704 287.232 323.496 288.554 323.496 290.038V290.468C323.496 291.952 323.704 293.28 324.121 294.452C324.538 295.611 325.163 296.529 325.996 297.206C326.842 297.87 327.884 298.202 329.121 298.202ZM341.172 309.335C340.755 309.335 340.378 309.302 340.039 309.237C339.701 309.185 339.349 309.101 338.984 308.983L339.238 306.054C339.421 306.119 339.727 306.177 340.156 306.229C340.599 306.282 340.938 306.308 341.172 306.308C341.94 306.308 342.546 305.969 342.988 305.292C343.444 304.628 343.672 303.71 343.672 302.538V282.694L340.488 282.147V279.667H347.52V302.538C347.52 304.713 346.96 306.386 345.84 307.558C344.72 308.743 343.164 309.335 341.172 309.335ZM343.477 274.452V270.331H347.52V274.452H343.477ZM358.633 301.21C356.432 301.21 354.759 300.676 353.613 299.608C352.467 298.528 351.895 297.011 351.895 295.058C351.895 293.052 352.715 291.444 354.355 290.233C355.996 289.009 358.275 288.397 361.191 288.397H364.961V286.327C364.961 285.051 364.57 284.062 363.789 283.358C363.021 282.655 361.934 282.304 360.527 282.304C359.642 282.304 358.874 282.414 358.223 282.636C357.572 282.844 356.979 283.137 356.445 283.515L356.035 286.464H353.066V281.62C354.017 280.852 355.124 280.272 356.387 279.882C357.65 279.478 359.049 279.276 360.586 279.276C363.151 279.276 365.163 279.888 366.621 281.112C368.079 282.336 368.809 284.088 368.809 286.366V296.542C368.809 296.815 368.809 297.082 368.809 297.343C368.822 297.603 368.841 297.864 368.867 298.124L370.918 298.339V300.8H365.391C365.273 300.227 365.182 299.713 365.117 299.257C365.052 298.801 365.007 298.345 364.98 297.89C364.238 298.84 363.307 299.634 362.188 300.272C361.081 300.897 359.896 301.21 358.633 301.21ZM359.199 297.987C360.475 297.987 361.641 297.681 362.695 297.069C363.75 296.457 364.505 295.722 364.961 294.862V291.034H361.055C359.284 291.034 357.956 291.457 357.07 292.304C356.185 293.15 355.742 294.094 355.742 295.136C355.742 296.06 356.029 296.77 356.602 297.265C357.174 297.746 358.04 297.987 359.199 297.987ZM94.707 354.21C92.9883 354.21 91.5104 353.787 90.2734 352.94C89.0495 352.081 88.112 350.89 87.4609 349.366C86.8099 347.843 86.4844 346.065 86.4844 344.034V343.624C86.4844 341.358 86.8099 339.373 87.4609 337.667C88.112 335.961 89.056 334.64 90.293 333.702C91.5299 332.752 93.0143 332.276 94.7461 332.276C95.9961 332.276 97.0964 332.511 98.0469 332.979C99.0104 333.435 99.8307 334.099 100.508 334.972V326.358L97.3242 325.812V323.331H100.508H104.355V350.792L107.539 351.339V353.8H101.016L100.703 351.28C100.013 352.244 99.1667 352.973 98.1641 353.468C97.1745 353.963 96.0221 354.21 94.707 354.21ZM95.6836 351.085C96.8294 351.085 97.793 350.825 98.5742 350.304C99.3555 349.783 100 349.047 100.508 348.097V338.292C100.013 337.407 99.3685 336.703 98.5742 336.183C97.7799 335.662 96.8294 335.401 95.7227 335.401C94.4987 335.401 93.4896 335.753 92.6953 336.456C91.901 337.146 91.3086 338.11 90.918 339.347C90.5273 340.571 90.332 341.996 90.332 343.624V344.034C90.332 346.157 90.7682 347.862 91.6406 349.151C92.513 350.44 93.8607 351.085 95.6836 351.085ZM119.707 354.21C117.754 354.21 116.055 353.767 114.609 352.882C113.164 351.983 112.044 350.74 111.25 349.151C110.469 347.563 110.078 345.727 110.078 343.644V342.784C110.078 340.779 110.488 338.989 111.309 337.413C112.142 335.825 113.242 334.575 114.609 333.663C115.99 332.739 117.493 332.276 119.121 332.276C121.022 332.276 122.611 332.667 123.887 333.448C125.176 334.229 126.146 335.33 126.797 336.749C127.448 338.155 127.773 339.815 127.773 341.729V344.132H114.062L114.004 344.229C114.03 345.584 114.264 346.788 114.707 347.843C115.163 348.884 115.814 349.705 116.66 350.304C117.507 350.903 118.522 351.202 119.707 351.202C121.009 351.202 122.148 351.02 123.125 350.655C124.115 350.278 124.967 349.763 125.684 349.112L127.188 351.612C126.432 352.341 125.43 352.96 124.18 353.468C122.943 353.963 121.452 354.21 119.707 354.21ZM114.18 341.124H123.926V340.616C123.926 339.601 123.743 338.696 123.379 337.901C123.027 337.094 122.493 336.463 121.777 336.007C121.074 335.538 120.189 335.304 119.121 335.304C118.262 335.304 117.48 335.558 116.777 336.065C116.074 336.56 115.495 337.237 115.039 338.097C114.583 338.956 114.284 339.933 114.141 341.026L114.18 341.124ZM140.742 353.8V351.339L143.926 350.792V335.694L140.742 335.147V332.667H147.383L147.637 335.421C148.314 334.418 149.186 333.644 150.254 333.097C151.322 332.55 152.559 332.276 153.965 332.276C155.371 332.276 156.576 332.602 157.578 333.253C158.594 333.904 159.355 334.881 159.863 336.183C160.527 334.985 161.406 334.034 162.5 333.331C163.594 332.628 164.87 332.276 166.328 332.276C168.49 332.276 170.195 333.019 171.445 334.503C172.695 335.974 173.32 338.194 173.32 341.163V350.792L176.504 351.339V353.8H166.27V351.339L169.453 350.792V341.124C169.453 339.041 169.095 337.569 168.379 336.71C167.663 335.838 166.602 335.401 165.195 335.401C163.854 335.401 162.773 335.877 161.953 336.827C161.146 337.765 160.677 338.95 160.547 340.382V350.792L163.73 351.339V353.8H153.516V351.339L156.699 350.792V341.124C156.699 339.145 156.328 337.7 155.586 336.788C154.857 335.864 153.796 335.401 152.402 335.401C151.23 335.401 150.267 335.642 149.512 336.124C148.757 336.606 148.177 337.283 147.773 338.155V350.792L150.957 351.339V353.8H140.742ZM188.613 354.21C186.66 354.21 184.974 353.754 183.555 352.843C182.148 351.918 181.061 350.649 180.293 349.034C179.525 347.407 179.141 345.551 179.141 343.468V343.038C179.141 340.955 179.525 339.106 180.293 337.491C181.061 335.864 182.148 334.588 183.555 333.663C184.974 332.739 186.647 332.276 188.574 332.276C190.527 332.276 192.207 332.739 193.613 333.663C195.033 334.588 196.126 335.857 196.895 337.472C197.663 339.086 198.047 340.942 198.047 343.038V343.468C198.047 345.564 197.663 347.426 196.895 349.054C196.126 350.668 195.039 351.931 193.633 352.843C192.227 353.754 190.553 354.21 188.613 354.21ZM188.613 351.202C189.837 351.202 190.859 350.87 191.68 350.206C192.513 349.529 193.138 348.611 193.555 347.452C193.984 346.28 194.199 344.952 194.199 343.468V343.038C194.199 341.554 193.984 340.232 193.555 339.073C193.138 337.901 192.513 336.983 191.68 336.319C190.846 335.642 189.811 335.304 188.574 335.304C187.35 335.304 186.322 335.642 185.488 336.319C184.655 336.983 184.03 337.901 183.613 339.073C183.197 340.232 182.988 341.554 182.988 343.038V343.468C182.988 344.952 183.197 346.28 183.613 347.452C184.03 348.611 184.655 349.529 185.488 350.206C186.335 350.87 187.376 351.202 188.613 351.202ZM210.02 354.21C208.301 354.21 206.823 353.787 205.586 352.94C204.362 352.081 203.424 350.89 202.773 349.366C202.122 347.843 201.797 346.065 201.797 344.034V343.624C201.797 341.358 202.122 339.373 202.773 337.667C203.424 335.961 204.368 334.64 205.605 333.702C206.842 332.752 208.327 332.276 210.059 332.276C211.309 332.276 212.409 332.511 213.359 332.979C214.323 333.435 215.143 334.099 215.82 334.972V326.358L212.637 325.812V323.331H215.82H219.668V350.792L222.852 351.339V353.8H216.328L216.016 351.28C215.326 352.244 214.479 352.973 213.477 353.468C212.487 353.963 211.335 354.21 210.02 354.21ZM210.996 351.085C212.142 351.085 213.105 350.825 213.887 350.304C214.668 349.783 215.312 349.047 215.82 348.097V338.292C215.326 337.407 214.681 336.703 213.887 336.183C213.092 335.662 212.142 335.401 211.035 335.401C209.811 335.401 208.802 335.753 208.008 336.456C207.214 337.146 206.621 338.11 206.23 339.347C205.84 340.571 205.645 341.996 205.645 343.624V344.034C205.645 346.157 206.081 347.862 206.953 349.151C207.826 350.44 209.173 351.085 210.996 351.085ZM232.344 354.21C230.143 354.21 228.47 353.676 227.324 352.608C226.178 351.528 225.605 350.011 225.605 348.058C225.605 346.052 226.426 344.444 228.066 343.233C229.707 342.009 231.986 341.397 234.902 341.397H238.672V339.327C238.672 338.051 238.281 337.062 237.5 336.358C236.732 335.655 235.645 335.304 234.238 335.304C233.353 335.304 232.585 335.414 231.934 335.636C231.283 335.844 230.69 336.137 230.156 336.515L229.746 339.464H226.777V334.62C227.728 333.852 228.835 333.272 230.098 332.882C231.361 332.478 232.76 332.276 234.297 332.276C236.862 332.276 238.874 332.888 240.332 334.112C241.79 335.336 242.52 337.088 242.52 339.366V349.542C242.52 349.815 242.52 350.082 242.52 350.343C242.533 350.603 242.552 350.864 242.578 351.124L244.629 351.339V353.8H239.102C238.984 353.227 238.893 352.713 238.828 352.257C238.763 351.801 238.717 351.345 238.691 350.89C237.949 351.84 237.018 352.634 235.898 353.272C234.792 353.897 233.607 354.21 232.344 354.21ZM232.91 350.987C234.186 350.987 235.352 350.681 236.406 350.069C237.461 349.457 238.216 348.722 238.672 347.862V344.034H234.766C232.995 344.034 231.667 344.457 230.781 345.304C229.896 346.15 229.453 347.094 229.453 348.136C229.453 349.06 229.74 349.77 230.312 350.265C230.885 350.746 231.751 350.987 232.91 350.987ZM266.133 354.21C264.714 354.21 263.385 354.067 262.148 353.78C260.911 353.494 259.596 353.051 258.203 352.452L258.164 347.433H261.074L261.797 350.46C262.526 350.759 263.229 350.981 263.906 351.124C264.596 351.254 265.339 351.319 266.133 351.319C267.695 351.319 268.815 351.02 269.492 350.421C270.169 349.822 270.508 349.08 270.508 348.194C270.508 347.361 270.163 346.658 269.473 346.085C268.796 345.499 267.559 345.004 265.762 344.601C263.21 344.015 261.328 343.233 260.117 342.257C258.919 341.267 258.32 339.952 258.32 338.312C258.32 337.166 258.652 336.144 259.316 335.245C259.98 334.334 260.905 333.611 262.09 333.077C263.275 332.543 264.655 332.276 266.23 332.276C267.832 332.276 269.199 332.459 270.332 332.823C271.478 333.188 272.474 333.676 273.32 334.288L273.516 339.112H270.625L270 336.3C269.544 335.961 269.004 335.701 268.379 335.519C267.754 335.336 267.038 335.245 266.23 335.245C265.033 335.245 264.056 335.525 263.301 336.085C262.559 336.645 262.188 337.348 262.188 338.194C262.188 338.689 262.292 339.119 262.5 339.483C262.721 339.848 263.138 340.18 263.75 340.479C264.362 340.766 265.26 341.052 266.445 341.339C269.388 342.029 271.439 342.908 272.598 343.976C273.77 345.043 274.355 346.358 274.355 347.921C274.355 349.705 273.691 351.202 272.363 352.413C271.048 353.611 268.971 354.21 266.133 354.21ZM286.836 354.21C284.544 354.21 282.754 353.474 281.465 352.003C280.176 350.532 279.531 348.24 279.531 345.128V335.694L277.109 335.147V332.667H279.531H283.379V345.167C283.379 347.42 283.711 348.969 284.375 349.815C285.039 350.662 286.074 351.085 287.48 351.085C288.848 351.085 289.974 350.812 290.859 350.265C291.758 349.705 292.435 348.917 292.891 347.901V335.694L290.059 335.147V332.667H292.891H296.738V350.792L299.16 351.339V353.8H293.281L293.027 350.675C292.363 351.808 291.504 352.68 290.449 353.292C289.408 353.904 288.203 354.21 286.836 354.21ZM310.43 354.21C309.01 354.21 307.682 354.067 306.445 353.78C305.208 353.494 303.893 353.051 302.5 352.452L302.461 347.433H305.371L306.094 350.46C306.823 350.759 307.526 350.981 308.203 351.124C308.893 351.254 309.635 351.319 310.43 351.319C311.992 351.319 313.112 351.02 313.789 350.421C314.466 349.822 314.805 349.08 314.805 348.194C314.805 347.361 314.46 346.658 313.77 346.085C313.092 345.499 311.855 345.004 310.059 344.601C307.507 344.015 305.625 343.233 304.414 342.257C303.216 341.267 302.617 339.952 302.617 338.312C302.617 337.166 302.949 336.144 303.613 335.245C304.277 334.334 305.202 333.611 306.387 333.077C307.572 332.543 308.952 332.276 310.527 332.276C312.129 332.276 313.496 332.459 314.629 332.823C315.775 333.188 316.771 333.676 317.617 334.288L317.812 339.112H314.922L314.297 336.3C313.841 335.961 313.301 335.701 312.676 335.519C312.051 335.336 311.335 335.245 310.527 335.245C309.329 335.245 308.353 335.525 307.598 336.085C306.855 336.645 306.484 337.348 306.484 338.194C306.484 338.689 306.589 339.119 306.797 339.483C307.018 339.848 307.435 340.18 308.047 340.479C308.659 340.766 309.557 341.052 310.742 341.339C313.685 342.029 315.736 342.908 316.895 343.976C318.066 345.043 318.652 346.358 318.652 347.921C318.652 349.705 317.988 351.202 316.66 352.413C315.345 353.611 313.268 354.21 310.43 354.21ZM329.297 354.132C327.734 354.132 326.491 353.676 325.566 352.765C324.655 351.84 324.199 350.369 324.199 348.351V335.519H320.859V332.667H324.199V327.569H328.047V332.667H332.637V335.519H328.047V348.351C328.047 349.366 328.249 350.115 328.652 350.597C329.056 351.078 329.596 351.319 330.273 351.319C330.729 351.319 331.237 351.28 331.797 351.202C332.357 351.111 332.793 351.033 333.105 350.968L333.633 353.487C333.073 353.657 332.383 353.806 331.562 353.937C330.755 354.067 330 354.132 329.297 354.132ZM345.332 354.21C343.379 354.21 341.68 353.767 340.234 352.882C338.789 351.983 337.669 350.74 336.875 349.151C336.094 347.563 335.703 345.727 335.703 343.644V342.784C335.703 340.779 336.113 338.989 336.934 337.413C337.767 335.825 338.867 334.575 340.234 333.663C341.615 332.739 343.118 332.276 344.746 332.276C346.647 332.276 348.236 332.667 349.512 333.448C350.801 334.229 351.771 335.33 352.422 336.749C353.073 338.155 353.398 339.815 353.398 341.729V344.132H339.688L339.629 344.229C339.655 345.584 339.889 346.788 340.332 347.843C340.788 348.884 341.439 349.705 342.285 350.304C343.132 350.903 344.147 351.202 345.332 351.202C346.634 351.202 347.773 351.02 348.75 350.655C349.74 350.278 350.592 349.763 351.309 349.112L352.812 351.612C352.057 352.341 351.055 352.96 349.805 353.468C348.568 353.963 347.077 354.21 345.332 354.21ZM339.805 341.124H349.551V340.616C349.551 339.601 349.368 338.696 349.004 337.901C348.652 337.094 348.118 336.463 347.402 336.007C346.699 335.538 345.814 335.304 344.746 335.304C343.887 335.304 343.105 335.558 342.402 336.065C341.699 336.56 341.12 337.237 340.664 338.097C340.208 338.956 339.909 339.933 339.766 341.026L339.805 341.124ZM356.406 353.8V351.339L359.59 350.792V335.694L356.406 335.147V332.667H363.027L363.301 335.812C364.004 334.692 364.883 333.826 365.938 333.214C367.005 332.589 368.216 332.276 369.57 332.276C371.849 332.276 373.613 332.947 374.863 334.288C376.113 335.616 376.738 337.674 376.738 340.46V350.792L379.922 351.339V353.8H369.707V351.339L372.891 350.792V340.538C372.891 338.676 372.52 337.354 371.777 336.573C371.048 335.792 369.928 335.401 368.418 335.401C367.311 335.401 366.328 335.668 365.469 336.202C364.622 336.736 363.945 337.465 363.438 338.39V350.792L366.621 351.339V353.8H356.406ZM389.336 354.132C387.773 354.132 386.53 353.676 385.605 352.765C384.694 351.84 384.238 350.369 384.238 348.351V335.519H380.898V332.667H384.238V327.569H388.086V332.667H392.676V335.519H388.086V348.351C388.086 349.366 388.288 350.115 388.691 350.597C389.095 351.078 389.635 351.319 390.312 351.319C390.768 351.319 391.276 351.28 391.836 351.202C392.396 351.111 392.832 351.033 393.145 350.968L393.672 353.487C393.112 353.657 392.422 353.806 391.602 353.937C390.794 354.067 390.039 354.132 389.336 354.132ZM402.969 354.21C400.768 354.21 399.095 353.676 397.949 352.608C396.803 351.528 396.23 350.011 396.23 348.058C396.23 346.052 397.051 344.444 398.691 343.233C400.332 342.009 402.611 341.397 405.527 341.397H409.297V339.327C409.297 338.051 408.906 337.062 408.125 336.358C407.357 335.655 406.27 335.304 404.863 335.304C403.978 335.304 403.21 335.414 402.559 335.636C401.908 335.844 401.315 336.137 400.781 336.515L400.371 339.464H397.402V334.62C398.353 333.852 399.46 333.272 400.723 332.882C401.986 332.478 403.385 332.276 404.922 332.276C407.487 332.276 409.499 332.888 410.957 334.112C412.415 335.336 413.145 337.088 413.145 339.366V349.542C413.145 349.815 413.145 350.082 413.145 350.343C413.158 350.603 413.177 350.864 413.203 351.124L415.254 351.339V353.8H409.727C409.609 353.227 409.518 352.713 409.453 352.257C409.388 351.801 409.342 351.345 409.316 350.89C408.574 351.84 407.643 352.634 406.523 353.272C405.417 353.897 404.232 354.21 402.969 354.21ZM403.535 350.987C404.811 350.987 405.977 350.681 407.031 350.069C408.086 349.457 408.841 348.722 409.297 347.862V344.034H405.391C403.62 344.034 402.292 344.457 401.406 345.304C400.521 346.15 400.078 347.094 400.078 348.136C400.078 349.06 400.365 349.77 400.938 350.265C401.51 350.746 402.376 350.987 403.535 350.987ZM402.754 328.644L406.348 323.331H410.84L410.879 323.448L405.625 328.644H402.93H402.754ZM426.699 353.8L419.18 335.44L416.992 335.147V332.667H425.859V335.147L423.105 335.538L427.793 347.569L428.34 349.269H428.457L429.082 347.569L433.438 335.538L430.605 335.147V332.667H439.453V335.147L437.227 335.44L430.078 353.8H426.699ZM450.605 354.21C448.652 354.21 446.953 353.767 445.508 352.882C444.062 351.983 442.943 350.74 442.148 349.151C441.367 347.563 440.977 345.727 440.977 343.644V342.784C440.977 340.779 441.387 338.989 442.207 337.413C443.04 335.825 444.141 334.575 445.508 333.663C446.888 332.739 448.392 332.276 450.02 332.276C451.921 332.276 453.509 332.667 454.785 333.448C456.074 334.229 457.044 335.33 457.695 336.749C458.346 338.155 458.672 339.815 458.672 341.729V344.132H444.961L444.902 344.229C444.928 345.584 445.163 346.788 445.605 347.843C446.061 348.884 446.712 349.705 447.559 350.304C448.405 350.903 449.421 351.202 450.605 351.202C451.908 351.202 453.047 351.02 454.023 350.655C455.013 350.278 455.866 349.763 456.582 349.112L458.086 351.612C457.331 352.341 456.328 352.96 455.078 353.468C453.841 353.963 452.35 354.21 450.605 354.21ZM445.078 341.124H454.824V340.616C454.824 339.601 454.642 338.696 454.277 337.901C453.926 337.094 453.392 336.463 452.676 336.007C451.973 335.538 451.087 335.304 450.02 335.304C449.16 335.304 448.379 335.558 447.676 336.065C446.973 336.56 446.393 337.237 445.938 338.097C445.482 338.956 445.182 339.933 445.039 341.026L445.078 341.124ZM461.484 353.8V351.339L464.668 350.792V326.358L461.484 325.812V323.331H468.516V350.792L471.699 351.339V353.8H461.484ZM475.859 336.612V332.667H479.707V336.612H475.859ZM476.211 359.874L474.043 358.429C474.655 357.491 475.117 356.534 475.43 355.558C475.742 354.581 475.898 353.546 475.898 352.452V349.483H479.746V352.394C479.746 353.67 479.427 355.004 478.789 356.397C478.151 357.791 477.292 358.95 476.211 359.874Z" fill="white"/>
</svg>
